{"glyphs":{"0":{"ha":694,"x_min":0,"x_max":0,"o":"m 351 939 b 128 806 263 939 188 894 b 38 464 68 717 38 603 b 126 115 38 321 67 206 b 346 -19 186 25 258 -19 b 565 119 431 -19 504 26 b 657 457 626 213 657 325 b 564 815 657 614 626 733 b 351 939 501 897 431 939 z m 197 413 b 347 888 197 729 247 888 b 497 506 447 888 497 760 b 458 139 497 332 485 210 b 350 32 433 68 397 32 b 197 413 249 32 197 158 z "},"1":{"ha":694,"x_min":0,"x_max":0,"o":"m 165 794 b 236 818 197 810 221 818 b 285 679 271 818 285 792 l 285 156 b 261 54 285 104 276 71 b 167 31 246 39 215 31 l 167 0 l 539 0 l 539 31 b 443 57 488 31 456 39 b 424 183 431 75 424 117 l 424 939 l 386 939 l 151 824 z "},"2":{"ha":694,"x_min":0,"x_max":0,"o":"m 621 194 b 472 126 600 149 550 126 l 204 126 l 388 319 b 594 692 510 449 594 568 b 328 939 594 838 490 939 b 57 679 179 939 79 835 l 89 679 b 278 821 118 767 185 821 b 451 635 385 821 451 750 b 368 403 451 560 424 482 b 22 25 313 324 197 197 l 22 0 l 581 0 l 651 194 z "},"3":{"ha":694,"x_min":0,"x_max":0,"o":"m 208 449 b 472 236 376 449 472 357 b 311 50 472 126 400 50 b 204 82 282 50 246 61 b 108 115 163 104 131 115 b 49 63 75 115 49 92 b 217 -19 49 8 104 -19 b 493 76 336 -19 428 13 b 592 313 558 140 592 219 b 424 543 592 422 536 499 b 549 744 494 588 549 665 b 490 881 549 796 529 842 b 322 939 451 919 396 939 b 74 744 207 939 117 860 l 100 731 b 268 829 132 782 200 829 b 414 685 358 829 414 772 b 208 481 414 568 331 499 l 208 449 z "},"4":{"ha":694,"x_min":0,"x_max":0,"o":"m 532 349 l 532 926 l 449 926 l 21 338 l 21 233 l 399 233 l 399 0 l 532 0 l 532 233 l 646 233 l 646 349 z m 108 349 l 396 757 l 399 757 l 399 349 z "},"5":{"ha":694,"x_min":0,"x_max":0,"o":"m 274 919 l 92 551 b 492 269 347 551 492 443 b 297 58 492 142 410 58 b 199 94 265 58 233 71 b 118 132 164 119 138 132 b 60 76 83 132 60 108 b 226 -19 60 26 128 -19 b 490 82 333 -19 421 14 b 594 328 560 150 594 232 b 489 567 594 426 560 506 b 222 678 418 629 329 665 l 278 790 l 564 790 l 621 919 z "},"6":{"ha":694,"x_min":0,"x_max":0,"o":"m 593 939 b 213 761 450 939 322 879 b 47 363 103 643 47 511 b 135 94 47 261 76 171 b 356 -19 193 18 267 -19 b 569 75 444 -19 515 13 b 650 307 624 138 650 215 b 579 501 650 385 626 450 b 407 581 533 554 475 581 b 222 519 339 581 276 560 b 622 908 265 701 406 903 l 622 939 z m 508 239 b 367 26 508 104 454 26 b 246 114 321 26 281 56 b 194 324 211 174 194 243 b 210 464 194 368 200 415 b 343 517 253 499 297 517 b 508 239 442 517 508 428 z "},"7":{"ha":694,"x_min":0,"x_max":0,"o":"m 40 694 l 71 685 b 147 768 96 726 121 754 b 267 790 174 783 214 790 l 508 790 l 231 -19 l 326 -19 l 632 879 l 632 919 l 139 919 z "},"8":{"ha":694,"x_min":0,"x_max":0,"o":"m 253 453 b 75 206 135 379 75 296 b 149 46 75 143 100 90 b 344 -19 199 3 264 -19 b 547 50 431 -19 499 4 b 622 219 597 96 622 153 b 576 369 622 279 607 329 b 411 518 546 410 490 460 b 603 739 539 588 603 661 b 343 939 603 856 503 939 b 157 876 269 939 208 918 b 82 722 107 835 82 783 b 253 453 82 610 136 543 z m 344 565 l 317 586 l 293 604 b 251 643 271 622 269 626 b 208 708 229 665 219 683 b 200 760 204 724 200 742 b 346 889 200 836 258 889 b 490 749 433 889 490 833 b 371 546 490 661 453 614 z m 292 424 b 464 282 378 364 435 317 b 507 165 493 247 507 208 b 354 31 507 83 447 31 b 192 214 254 31 192 107 b 292 424 192 299 225 369 z "},"9":{"ha":694,"x_min":0,"x_max":0,"o":"m 96 -19 b 492 169 251 -19 399 58 b 644 554 586 281 644 425 b 556 826 644 661 615 753 b 342 939 496 901 425 939 b 125 843 254 939 182 907 b 42 610 69 779 42 701 b 110 415 42 538 64 472 b 285 329 156 358 214 329 b 475 403 361 329 424 354 b 329 125 447 293 399 201 b 74 11 261 49 175 11 l 74 -19 z m 488 460 b 343 401 450 426 389 401 b 182 676 236 401 182 493 b 331 893 182 811 238 893 b 451 808 379 893 419 865 b 499 592 483 751 499 679 b 488 460 499 553 494 508 z "},"\u0000":{"ha":0,"x_min":0,"x_max":0,"o":""},"\r":{"ha":347,"x_min":0,"x_max":0,"o":""}," ":{"ha":347,"x_min":0,"x_max":0,"o":""},"!":{"ha":463,"x_min":0,"x_max":0,"o":"m 275 468 l 310 711 b 325 829 319 779 325 818 b 231 940 325 903 293 940 b 136 829 174 940 136 897 b 182 467 136 806 154 668 l 213 243 l 246 243 z m 231 -19 b 293 129 306 -22 349 79 b 144 67 243 189 138 143 b 231 -19 144 18 181 -19 z "},"\"":{"ha":567,"x_min":0,"x_max":0,"o":"m 196 643 l 213 724 l 224 779 b 233 860 231 819 233 839 b 160 940 233 908 204 940 b 82 860 111 940 82 908 b 96 757 82 836 89 794 b 114 663 100 739 106 707 b 138 544 124 619 131 579 l 176 544 z m 446 643 l 463 724 l 474 779 b 483 860 481 819 483 839 b 410 940 483 908 454 940 b 332 860 361 940 332 908 b 346 757 332 836 339 794 b 364 663 350 739 356 707 b 388 544 374 619 381 579 l 426 544 z "},"#":{"ha":694,"x_min":0,"x_max":0,"o":"m 136 -21 l 201 283 l 421 283 l 358 -21 l 431 -21 l 490 283 l 678 283 l 678 350 l 506 350 l 549 565 l 678 565 l 678 631 l 563 631 l 628 940 l 556 940 l 493 631 l 274 631 l 333 940 l 264 940 l 201 631 l 18 631 l 18 565 l 188 565 l 142 350 l 17 350 l 17 283 l 131 283 l 67 -21 z m 256 565 l 479 565 l 433 350 l 211 350 z "},"$":{"ha":694,"x_min":0,"x_max":0,"o":"m 357 882 b 543 672 474 871 536 782 l 582 672 l 582 875 b 357 935 500 914 425 933 l 357 997 l 307 997 l 307 935 b 135 869 240 929 183 907 b 64 718 88 832 64 781 b 115 564 64 661 81 610 b 307 408 150 518 214 465 l 307 32 b 169 88 256 33 210 53 b 106 226 129 124 108 169 l 69 226 l 69 35 b 307 -19 149 1 228 -17 l 307 -106 l 357 -106 l 357 -19 b 546 53 428 -18 490 7 b 631 226 603 100 631 158 b 576 383 631 285 613 338 b 357 560 542 431 468 489 z m 357 379 b 504 192 467 301 504 254 b 357 32 504 104 453 44 z m 307 586 b 190 753 229 632 190 688 b 307 882 190 826 246 878 z "},"%":{"ha":1157,"x_min":0,"x_max":0,"o":"m 243 939 b 96 865 186 939 136 914 b 36 690 56 817 36 758 b 94 513 36 619 56 560 b 243 442 135 465 183 442 b 390 514 303 442 353 465 b 449 690 429 563 449 621 b 392 868 449 763 429 822 b 243 939 354 915 304 939 z m 244 896 b 319 692 294 896 319 828 b 242 482 319 551 293 482 b 165 689 190 482 165 551 b 244 896 165 826 192 896 z m 872 940 l 215 -21 l 293 -21 l 950 940 z m 915 478 b 765 401 856 478 806 453 b 707 229 726 351 707 294 b 768 51 707 158 728 100 b 915 -19 808 4 858 -19 b 1061 53 974 -19 1022 4 b 1121 229 1101 101 1121 160 b 1064 404 1121 297 1101 356 b 915 478 1026 453 978 478 z m 915 435 b 990 231 965 435 990 367 b 914 21 990 75 965 21 b 836 228 863 21 836 90 b 915 435 836 365 863 435 z "},"&":{"ha":1089,"x_min":0,"x_max":0,"o":"m 1017 186 b 897 88 1001 131 949 88 b 700 211 826 88 774 126 b 856 451 729 251 781 331 b 926 540 885 496 908 525 b 1003 564 946 556 971 563 l 1003 594 l 714 594 l 714 564 b 774 492 754 563 774 538 b 661 258 774 432 736 354 b 488 524 597 335 539 424 b 708 774 635 596 708 679 b 518 940 708 874 635 940 b 349 878 453 940 396 919 b 279 718 303 836 279 783 b 333 515 279 664 297 596 b 49 183 143 422 49 311 b 308 -21 49 60 143 -21 b 597 103 404 -21 501 21 b 832 -21 672 21 750 -21 b 1046 164 944 -21 1022 53 z m 463 575 b 407 767 425 647 407 711 b 522 886 407 833 456 886 b 617 779 579 886 617 846 b 463 575 617 686 550 618 z m 554 150 b 369 67 488 94 426 67 b 206 244 274 67 206 144 b 358 463 206 335 257 407 b 554 150 435 319 500 215 z "},"'":{"ha":250,"x_min":0,"x_max":0,"o":"m 167 664 l 185 757 b 200 860 194 796 200 836 b 125 940 200 908 171 940 b 47 860 79 940 47 908 b 68 724 47 836 56 783 l 85 643 l 104 544 l 143 544 z "},"(":{"ha":463,"x_min":0,"x_max":0,"o":"m 432 964 b 140 700 306 899 208 811 b 40 332 74 590 40 467 b 432 -300 40 61 181 -165 l 432 -267 b 203 332 279 -178 203 22 b 432 929 203 647 293 851 l 432 964 z "},")":{"ha":463,"x_min":0,"x_max":0,"o":"m 25 -300 b 417 332 275 -165 417 64 b 25 964 417 603 281 835 l 25 929 b 256 332 169 844 256 636 b 25 -267 256 26 179 -174 l 25 -300 z "},"*":{"ha":694,"x_min":0,"x_max":0,"o":"m 319 683 b 238 661 306 675 278 668 b 138 632 197 654 164 644 b 97 572 111 619 97 600 b 153 519 97 543 121 519 b 333 657 217 513 286 636 b 310 561 333 635 325 603 b 288 472 294 519 288 490 b 347 403 288 432 308 403 b 406 472 386 403 406 426 b 383 561 406 490 399 519 b 363 657 369 603 363 635 b 478 544 397 636 440 578 b 542 519 497 528 518 519 b 597 571 569 519 597 543 b 458 663 597 626 540 650 b 376 685 418 669 390 678 b 513 719 406 703 469 714 b 596 793 557 726 596 750 b 542 847 596 825 571 847 b 421 761 496 847 461 810 b 361 710 400 738 381 719 b 383 803 361 729 368 760 b 406 896 399 846 406 878 b 347 963 406 940 386 963 b 288 896 307 963 288 940 b 310 803 288 878 294 846 b 333 710 325 760 333 729 b 218 822 301 728 258 789 b 153 847 197 839 176 847 b 97 796 125 847 97 824 b 233 710 97 740 154 722 b 319 683 274 703 301 694 z "},"+":{"ha":783,"x_min":0,"x_max":0,"o":"m 424 96 l 424 425 l 757 425 l 757 493 l 424 493 l 424 826 l 356 826 l 356 493 l 28 493 l 28 425 l 356 425 l 356 96 z "},",":{"ha":357,"x_min":0,"x_max":0,"o":"m 78 -226 b 224 -140 135 -212 183 -183 b 285 6 264 -97 285 -49 b 165 161 285 94 236 161 b 74 72 114 161 74 121 b 147 -7 74 28 103 -7 b 206 13 171 -7 196 13 b 226 -17 219 13 226 3 b 182 -124 226 -54 211 -90 b 78 -190 153 -157 118 -179 l 78 -226 z "},"-":{"ha":463,"x_min":0,"x_max":0,"o":"m 56 268 l 407 268 l 407 382 l 56 382 z "},".":{"ha":347,"x_min":0,"x_max":0,"o":"m 174 -19 b 261 68 225 -19 261 17 b 174 156 261 118 225 156 b 88 68 125 156 88 118 b 174 -19 88 17 124 -19 z "},"/":{"ha":386,"x_min":0,"x_max":0,"o":"m 325 964 l -7 -19 l 60 -19 l 392 964 z "},":":{"ha":386,"x_min":0,"x_max":0,"o":"m 196 461 b 282 549 240 461 282 499 b 196 636 282 593 246 636 b 108 549 147 636 108 597 b 196 461 108 500 147 461 z m 194 -12 b 279 78 239 -12 279 26 b 194 161 279 122 243 161 b 104 76 144 161 104 125 b 194 -12 104 26 144 -12 z "},";":{"ha":386,"x_min":0,"x_max":0,"o":"m 100 544 b 189 456 100 494 140 456 b 276 544 238 456 276 494 b 189 631 276 593 238 631 b 100 544 139 631 100 593 z m 97 -226 b 243 -140 154 -212 203 -183 b 304 6 283 -97 304 -49 b 185 161 304 94 256 161 b 93 72 133 161 93 121 b 167 -7 93 28 122 -7 b 225 13 190 -7 215 13 b 244 -17 238 13 244 3 b 200 -124 244 -54 229 -90 b 97 -190 171 -157 138 -179 z "},"<":{"ha":783,"x_min":0,"x_max":0,"o":"m 28 444 l 757 126 l 757 200 l 154 461 l 757 722 l 757 796 l 28 478 z "},"=":{"ha":783,"x_min":0,"x_max":0,"o":"m 28 535 l 757 535 l 757 600 l 28 600 z m 28 319 l 757 319 l 757 383 l 28 383 z "},">":{"ha":783,"x_min":0,"x_max":0,"o":"m 757 478 l 28 796 l 28 722 l 629 461 l 28 199 l 28 126 l 757 444 z "},"?":{"ha":617,"x_min":0,"x_max":0,"o":"m 306 233 b 475 529 306 361 400 451 b 568 725 526 583 568 653 b 503 876 568 783 546 833 b 308 940 460 919 396 940 b 118 879 225 940 161 919 b 53 744 75 839 53 793 b 135 635 53 678 90 635 b 193 694 169 635 193 660 b 172 754 193 711 186 731 b 151 815 158 778 151 797 b 276 897 151 860 206 897 b 422 713 364 897 422 831 b 347 489 422 636 385 550 b 272 233 310 428 272 328 z m 292 156 b 206 68 243 156 206 118 b 292 -19 206 18 242 -19 b 379 68 342 -19 379 18 b 292 156 379 118 342 156 z "},"@":{"ha":1279,"x_min":0,"x_max":0,"o":"m 846 632 l 825 564 l 822 564 b 715 653 813 618 771 653 b 544 581 663 653 606 629 b 389 394 483 532 432 471 b 326 175 347 319 326 246 b 458 21 326 88 379 21 b 597 76 504 21 551 39 b 719 210 643 114 685 158 l 722 207 b 711 114 715 172 711 140 b 821 21 711 51 754 21 b 1085 163 925 21 1013 68 b 1194 499 1158 257 1194 369 b 1058 838 1194 640 1149 753 b 708 964 968 922 851 964 b 379 872 588 964 478 933 b 150 629 281 813 204 731 b 68 299 96 528 68 418 b 236 -129 68 128 124 -15 b 663 -300 349 -243 492 -300 b 1021 -185 793 -300 913 -261 b 1247 117 1131 -108 1206 -7 l 1201 117 b 660 -250 1103 -121 904 -250 b 289 -100 508 -250 385 -200 b 146 278 193 -1 146 125 b 297 731 146 454 203 614 b 717 922 393 849 544 922 b 1025 810 843 922 946 885 b 1144 508 1104 735 1144 635 b 1054 210 1144 399 1114 300 b 871 75 994 119 933 75 b 825 122 840 75 825 90 b 851 249 825 151 844 221 l 967 649 z m 796 524 b 701 243 796 424 764 331 b 522 113 639 156 579 113 b 453 200 476 113 453 142 b 547 472 453 285 485 375 b 724 618 610 569 669 618 b 796 524 772 618 796 586 z "},"A":{"ha":1031,"x_min":0,"x_max":0,"o":"m 679 193 b 710 93 700 147 710 114 b 615 31 710 54 678 33 l 615 0 l 1018 0 l 1018 31 b 926 67 979 32 949 44 b 854 190 904 90 881 131 l 531 940 l 497 940 l 157 168 b 93 63 133 115 113 81 b 13 31 75 44 47 35 l 13 0 l 319 0 l 319 31 b 210 90 246 35 210 56 b 239 182 210 104 219 135 l 292 306 l 632 306 z m 317 361 l 461 707 l 608 361 z "},"B":{"ha":915,"x_min":0,"x_max":0,"o":"m 149 182 b 124 60 149 119 140 79 b 18 31 107 40 72 31 l 18 0 l 501 0 b 868 256 746 0 868 104 b 806 396 868 310 847 356 b 654 469 765 436 714 461 l 654 472 b 831 672 753 500 831 578 b 456 919 831 826 706 919 l 18 919 l 18 889 b 122 858 71 889 106 879 b 149 724 140 838 149 793 z m 307 853 b 417 867 338 863 374 867 b 664 678 571 867 664 796 b 449 500 664 572 586 500 b 307 510 383 500 336 503 z m 307 438 b 413 444 332 442 367 444 b 688 240 578 444 688 372 b 453 58 688 129 592 58 b 307 76 392 58 343 64 z "},"C":{"ha":926,"x_min":0,"x_max":0,"o":"m 813 940 b 756 879 800 900 782 879 b 522 939 742 879 639 939 b 176 794 383 939 268 890 b 39 442 85 699 39 581 b 169 113 39 311 82 201 b 497 -21 257 24 365 -21 b 878 215 675 -21 790 56 l 851 232 b 718 90 807 167 763 119 b 551 47 675 61 619 47 b 313 146 456 47 375 81 b 219 443 250 213 219 311 b 304 768 219 583 247 692 b 528 883 361 844 436 883 b 836 628 693 883 785 793 l 863 628 l 842 940 z "},"D":{"ha":1017,"x_min":0,"x_max":0,"o":"m 151 182 b 129 56 151 114 144 72 b 21 31 114 39 78 31 l 21 0 l 463 0 b 838 133 622 0 747 44 b 974 464 928 222 974 332 b 432 919 974 768 793 919 l 21 919 l 21 889 b 129 861 79 889 115 879 b 151 724 144 843 151 797 z m 310 842 b 444 860 347 854 392 860 b 696 754 549 860 632 825 b 793 460 761 685 793 586 b 694 164 793 335 760 236 b 440 57 629 93 544 57 b 310 75 394 57 351 63 z "},"E":{"ha":857,"x_min":0,"x_max":0,"o":"m 533 863 b 671 833 601 863 647 853 b 728 710 694 815 714 774 l 757 710 l 744 919 l 19 919 l 19 889 b 128 861 76 889 113 879 b 150 724 143 843 150 797 l 150 182 b 126 56 150 115 142 74 b 19 31 111 39 76 31 l 19 0 l 749 0 l 826 235 l 796 235 b 690 93 756 167 721 119 b 560 56 661 68 617 56 l 379 56 b 308 119 325 56 308 74 l 308 450 l 481 450 b 604 424 543 450 585 442 b 642 314 624 407 636 371 l 671 314 l 671 646 l 642 646 b 606 536 638 589 626 553 b 481 511 585 519 543 511 l 308 511 l 308 863 z "},"F":{"ha":781,"x_min":0,"x_max":0,"o":"m 482 861 b 632 831 553 861 603 851 b 703 704 661 811 685 769 l 732 704 l 722 919 l 19 919 l 19 889 b 126 860 75 889 111 879 b 150 746 142 840 150 803 l 150 182 b 126 58 150 119 142 78 b 19 31 111 40 76 31 l 19 0 l 440 0 l 440 31 b 331 58 383 31 346 40 b 308 182 315 78 308 119 l 308 446 l 444 446 b 583 317 550 446 579 417 l 613 317 l 613 642 l 583 642 b 444 511 579 540 550 511 l 308 511 l 308 861 z "},"G":{"ha":1014,"x_min":0,"x_max":0,"o":"m 890 347 b 994 476 890 447 913 475 l 994 507 l 601 507 l 601 476 b 707 446 656 475 690 465 b 732 325 724 426 732 386 l 732 81 b 564 36 686 51 631 36 b 315 157 463 36 379 76 b 221 475 253 238 221 343 b 310 774 221 601 250 701 b 546 883 369 847 449 883 b 857 643 706 883 808 803 l 886 643 l 863 940 l 829 940 b 796 883 828 901 819 883 b 704 911 786 883 756 893 b 538 940 653 931 597 940 b 164 775 381 940 243 874 b 40 444 86 676 40 560 b 176 108 40 307 86 196 b 564 -21 267 22 396 -21 b 890 60 685 -21 793 6 l 890 347 z "},"H":{"ha":1018,"x_min":0,"x_max":0,"o":"m 310 726 b 333 860 310 797 318 842 b 440 889 349 879 385 889 l 440 919 l 21 919 l 21 889 b 128 861 78 889 113 879 b 151 726 143 843 151 797 l 151 192 b 126 60 151 124 143 81 b 21 31 110 40 75 31 l 21 0 l 440 0 l 440 31 b 333 60 386 31 350 40 b 310 192 318 81 310 124 l 310 433 l 707 433 l 707 189 b 682 60 707 124 699 81 b 576 31 665 40 631 31 l 576 0 l 996 0 l 996 31 b 889 58 942 31 906 40 b 865 189 874 78 865 121 l 865 726 b 889 858 865 794 874 839 b 996 889 904 879 940 889 l 996 919 l 576 919 l 576 889 b 682 860 631 889 665 879 b 707 726 699 840 707 796 l 707 499 l 310 499 z "},"I":{"ha":465,"x_min":0,"x_max":0,"o":"m 311 724 b 333 858 311 794 318 840 b 442 889 349 878 385 888 l 442 919 l 22 919 l 22 889 b 131 860 79 888 115 878 b 153 724 146 842 153 797 l 153 193 b 129 60 153 124 144 79 b 22 31 114 42 78 32 l 22 0 l 442 0 l 442 31 b 333 58 385 32 349 40 b 311 193 318 76 311 121 l 311 724 z "},"J":{"ha":558,"x_min":0,"x_max":0,"o":"m 258 147 b 217 29 258 68 244 29 b 90 156 164 29 182 156 b 22 86 51 156 22 126 b 167 -21 22 29 82 -21 b 326 40 221 -21 272 -3 b 417 290 381 85 417 174 l 417 724 b 442 858 417 793 425 838 b 547 889 458 879 493 889 l 547 919 l 128 919 l 128 889 b 233 858 182 889 218 879 b 258 724 250 839 258 794 l 258 147 z "},"K":{"ha":1058,"x_min":0,"x_max":0,"o":"m 690 743 b 932 889 788 835 868 883 l 932 919 l 571 919 l 571 889 b 656 843 628 888 656 872 b 557 706 656 810 622 764 l 310 475 l 310 721 b 333 860 310 794 318 840 b 440 889 349 879 385 889 l 440 919 l 21 919 l 21 889 b 126 858 75 889 111 879 b 151 721 143 839 151 793 l 151 186 b 128 58 151 121 143 78 b 21 31 113 40 76 31 l 21 0 l 440 0 l 440 31 b 333 60 385 31 349 40 b 310 186 318 81 310 122 l 310 458 l 599 158 l 636 118 b 647 104 639 115 643 111 b 660 72 658 92 660 83 b 586 31 660 46 635 32 l 586 0 l 1053 0 l 1053 31 b 860 114 985 32 906 76 b 779 190 838 133 811 158 l 456 525 z "},"L":{"ha":857,"x_min":0,"x_max":0,"o":"m 310 703 b 336 857 310 785 318 836 b 464 889 354 878 396 889 l 464 919 l 21 919 l 21 889 b 128 861 78 889 113 879 b 151 724 143 843 151 797 l 151 186 b 126 58 151 119 143 76 b 21 31 111 40 75 31 l 21 0 l 746 0 l 825 250 l 797 254 b 700 108 769 183 738 135 b 557 69 664 82 617 69 l 382 69 b 310 192 325 69 310 90 l 310 703 z "},"M":{"ha":1243,"x_min":0,"x_max":0,"o":"m 600 0 l 931 732 l 933 732 l 933 182 b 908 58 933 118 925 76 b 803 31 892 40 857 31 l 803 0 l 1222 0 l 1222 31 b 1115 58 1168 31 1132 40 b 1092 182 1100 78 1092 119 l 1092 738 b 1115 861 1092 803 1100 843 b 1222 889 1131 879 1167 889 l 1222 919 l 940 919 l 631 247 l 321 919 l 17 919 l 17 889 b 124 860 72 889 108 879 b 147 739 139 842 147 801 l 147 182 b 122 58 147 118 139 76 b 17 31 107 40 71 31 l 17 0 l 351 0 l 351 31 b 246 58 297 31 263 40 b 221 182 229 76 221 118 l 221 757 l 224 757 l 571 0 z "},"N":{"ha":1018,"x_min":0,"x_max":0,"o":"m 254 715 l 850 -15 l 878 -15 l 878 744 b 903 863 878 806 886 844 b 1008 889 919 881 954 889 l 1008 919 l 675 919 l 675 889 b 782 864 732 889 767 881 b 806 744 797 847 806 807 l 806 293 l 803 293 l 290 919 l 0 919 l 0 889 b 179 804 89 889 128 867 l 179 182 b 156 57 179 117 171 75 b 49 31 140 39 104 31 l 49 0 l 382 0 l 382 31 b 274 57 325 31 289 39 b 251 182 258 75 251 117 l 251 715 z "},"O":{"ha":1004,"x_min":0,"x_max":0,"o":"m 501 -21 b 833 121 638 -21 749 26 b 963 460 919 215 963 328 b 835 800 963 593 919 707 b 501 940 750 893 639 940 b 169 799 365 940 254 893 b 42 460 85 706 42 592 b 501 -21 35 208 226 -24 z m 501 40 b 222 460 322 40 222 197 b 501 881 222 719 317 881 b 782 460 683 881 782 721 b 501 40 782 192 686 40 z "},"P":{"ha":778,"x_min":0,"x_max":0,"o":"m 310 424 b 453 406 365 411 413 406 b 743 663 629 406 743 507 b 410 919 743 818 621 919 l 21 919 l 21 889 b 126 858 75 889 111 879 b 151 724 143 839 151 794 l 151 186 b 125 60 151 121 143 79 b 21 31 107 40 72 31 l 21 0 l 440 0 l 440 31 b 335 60 386 31 351 40 b 310 186 318 79 310 121 z m 310 846 b 393 857 332 853 360 857 b 564 656 499 857 564 783 b 421 461 564 539 500 461 b 310 478 386 461 350 467 z "},"Q":{"ha":1003,"x_min":0,"x_max":0,"o":"m 946 -249 b 756 -176 878 -244 814 -221 b 622 -11 699 -132 654 -76 b 872 171 729 25 813 86 b 963 460 932 256 963 353 b 835 800 963 593 919 707 b 501 940 750 893 639 940 b 168 800 364 940 253 893 b 42 460 83 707 42 593 b 372 -14 42 235 151 76 b 632 -203 443 -93 531 -156 b 946 -281 733 -250 839 -276 z m 501 32 b 222 460 324 32 222 183 b 501 878 222 739 322 878 b 782 460 679 878 782 742 b 501 32 782 175 689 32 z "},"R":{"ha":965,"x_min":0,"x_max":0,"o":"m 960 31 b 831 71 907 35 864 49 b 715 197 799 93 760 135 l 536 447 b 768 681 669 475 768 554 b 447 919 768 829 642 919 l 21 919 l 21 889 b 126 858 75 889 111 879 b 151 738 143 839 151 799 l 151 176 b 126 60 151 118 143 79 b 21 31 111 40 75 31 l 21 0 l 440 0 l 440 31 b 333 58 385 31 349 40 b 310 176 318 78 310 117 l 310 424 l 374 424 l 667 0 l 960 0 z m 310 849 b 411 861 336 857 371 861 b 582 675 515 861 582 788 b 340 475 582 547 494 475 l 310 475 z "},"S":{"ha":726,"x_min":0,"x_max":0,"o":"m 592 940 b 544 888 585 906 569 888 b 468 914 538 888 513 896 b 340 940 424 932 381 940 b 140 869 261 940 194 917 b 61 697 88 824 61 765 b 538 181 61 392 538 392 b 372 40 538 96 472 40 b 101 294 235 40 125 122 l 69 294 l 69 -21 l 101 -21 b 143 31 103 14 117 31 b 242 4 158 31 192 22 b 388 -21 292 -12 340 -21 b 606 54 481 -21 554 4 b 685 240 658 104 685 167 b 511 493 685 350 607 439 b 244 653 415 549 313 593 b 335 881 140 742 213 886 b 592 622 483 881 579 776 l 625 622 l 625 940 z "},"T":{"ha":854,"x_min":0,"x_max":0,"o":"m 624 854 b 788 692 740 854 776 803 l 818 692 l 808 919 l 47 919 l 36 692 l 67 692 b 231 854 83 807 118 854 l 349 854 l 349 185 b 325 57 349 118 340 75 b 218 31 310 39 274 31 l 218 0 l 638 0 l 638 31 b 532 60 583 31 549 40 b 507 185 515 81 507 122 l 507 854 z "},"U":{"ha":1026,"x_min":0,"x_max":0,"o":"m 146 329 b 529 -21 146 96 274 -21 b 882 328 768 -21 882 111 l 882 738 b 907 860 882 800 890 842 b 1013 889 925 879 960 889 l 1013 919 l 679 919 l 679 889 b 783 861 731 889 765 879 b 810 738 801 843 810 801 l 810 389 b 536 49 810 154 719 49 b 304 376 375 49 304 142 l 304 724 b 326 860 304 794 311 840 b 435 889 342 879 378 889 l 435 919 l 15 919 l 15 889 b 121 858 69 889 104 879 b 146 724 138 838 146 793 l 146 329 z "},"V":{"ha":1021,"x_min":0,"x_max":0,"o":"m 354 706 b 339 740 353 707 349 719 b 321 792 331 761 325 779 b 315 825 317 804 315 815 b 417 889 315 868 343 888 l 417 919 l 14 919 l 14 889 b 103 858 54 886 85 876 b 167 750 121 840 143 804 l 507 -21 l 543 -21 l 861 740 b 925 853 885 794 906 832 b 1006 889 944 874 971 886 l 1006 919 l 713 919 l 713 889 b 814 832 781 888 814 869 b 779 713 814 808 803 768 l 569 207 z "},"W":{"ha":1331,"x_min":0,"x_max":0,"o":"m 932 253 l 772 692 b 736 826 749 763 736 807 b 835 889 736 875 763 889 l 835 919 l 453 919 l 453 889 b 547 847 497 889 526 879 b 594 749 569 815 576 803 l 632 644 l 492 258 l 489 258 l 313 751 b 292 831 299 789 292 815 b 382 889 292 869 322 889 l 382 919 l 14 919 l 14 889 b 90 865 49 889 74 881 b 142 767 107 850 124 817 l 431 -21 l 463 -21 l 667 547 l 669 547 l 876 -21 l 908 -21 l 1181 739 b 1238 857 1201 799 1219 838 b 1317 889 1256 878 1282 888 l 1317 919 l 1026 919 l 1026 889 b 1132 824 1097 889 1132 874 b 1097 699 1132 800 1121 758 l 935 253 z "},"X":{"ha":1017,"x_min":0,"x_max":0,"o":"m 615 188 b 669 81 651 133 669 99 b 582 31 669 47 640 31 l 582 0 l 1004 0 l 1004 31 b 822 153 936 29 882 65 l 581 507 l 749 724 b 847 836 792 779 808 799 b 978 889 888 874 929 889 l 978 919 l 639 919 l 639 889 b 740 847 707 889 740 875 b 685 751 740 832 722 800 l 539 564 l 419 750 b 375 842 390 794 375 825 b 464 889 375 874 404 889 l 464 919 l 28 919 l 28 889 b 149 849 79 888 119 874 b 271 697 178 825 219 774 l 440 449 l 254 197 b 13 31 178 93 97 38 l 13 0 l 358 0 l 358 31 b 269 75 299 32 269 46 b 325 176 269 90 288 125 l 481 386 z "},"Y":{"ha":1018,"x_min":0,"x_max":0,"o":"m 357 763 b 326 839 336 792 326 818 b 432 889 326 876 354 888 l 432 919 l 14 919 l 14 889 b 147 803 65 886 110 857 l 429 378 l 429 192 b 404 60 429 124 421 79 b 299 31 389 40 353 31 l 299 0 l 718 0 l 718 31 b 611 60 663 31 626 40 b 588 192 596 79 588 124 l 588 396 l 814 753 b 1006 889 876 854 924 888 l 1006 919 l 671 919 l 671 889 b 765 832 733 889 765 869 b 713 717 765 810 747 771 l 554 465 z "},"Z":{"ha":842,"x_min":0,"x_max":0,"o":"m 804 919 l 117 919 l 97 689 l 129 689 b 181 825 139 760 156 804 b 324 856 206 846 253 856 l 579 856 l 15 25 l 15 0 l 774 0 l 817 243 l 785 243 b 710 100 758 172 733 124 b 581 65 686 76 643 65 l 225 65 z "},"[":{"ha":463,"x_min":0,"x_max":0,"o":"m 419 -217 l 236 -217 l 236 882 l 419 882 l 419 940 l 104 940 l 104 -275 l 419 -275 z "},"\\":{"ha":386,"x_min":0,"x_max":0,"o":"m -7 964 l 325 -19 l 392 -19 l 60 964 z "},"]":{"ha":463,"x_min":0,"x_max":0,"o":"m 42 882 l 226 882 l 226 -217 l 42 -217 l 42 -275 l 358 -275 l 358 940 l 42 940 z "},"^":{"ha":651,"x_min":0,"x_max":0,"o":"m 314 939 l 25 450 l 96 450 l 326 843 l 553 450 l 626 450 l 339 939 z "},"_":{"ha":694,"x_min":0,"x_max":0,"o":"m 706 -99 l -11 -99 l -11 -182 l 706 -182 z "},"`":{"ha":463,"x_min":0,"x_max":0,"o":"m 274 758 l 306 758 l 244 989 l 67 989 z "},"a":{"ha":622,"x_min":0,"x_max":0,"o":"m 518 450 b 300 640 518 576 446 640 b 126 592 228 640 169 624 b 63 479 83 560 63 522 b 125 413 63 442 86 413 b 193 517 171 413 193 447 b 281 590 193 565 222 590 b 383 404 360 590 383 539 b 117 275 257 360 168 317 b 40 136 65 233 40 188 b 197 -19 40 38 103 -19 b 383 76 250 -19 313 13 b 464 -19 385 13 413 -19 b 613 76 515 -19 565 13 l 613 126 b 547 76 585 93 563 76 b 518 171 525 76 518 89 z m 383 128 b 261 74 335 92 294 74 b 176 165 213 74 176 114 b 383 357 176 247 228 292 z "},"b":{"ha":694,"x_min":0,"x_max":0,"o":"m 185 964 l -21 885 l -10 857 b 35 867 8 864 22 867 b 89 772 74 867 89 844 l 89 60 b 329 -19 163 7 243 -19 b 557 82 417 -19 492 14 b 656 338 622 150 656 235 b 585 558 656 431 632 504 b 411 640 539 613 481 640 b 226 531 339 640 267 596 l 224 531 l 224 964 z m 224 468 b 353 535 265 513 308 535 b 519 299 446 535 519 449 b 357 40 519 138 446 40 b 224 104 303 40 258 61 z "},"c":{"ha":625,"x_min":0,"x_max":0,"o":"m 563 244 b 372 100 519 149 457 100 b 176 375 261 100 176 207 b 329 588 176 503 239 588 b 417 514 385 588 414 563 b 500 425 421 454 449 425 b 571 493 540 425 571 454 b 506 596 571 532 549 567 b 349 640 463 625 411 640 b 133 544 264 640 193 608 b 46 310 75 481 46 403 b 125 72 46 213 72 133 b 325 -19 178 11 244 -19 b 493 51 390 -19 447 4 b 588 229 540 100 572 158 l 563 244 z "},"d":{"ha":715,"x_min":0,"x_max":0,"o":"m 474 590 b 340 640 443 624 399 640 b 121 535 250 640 178 606 b 36 288 64 465 36 383 b 107 67 36 197 60 124 b 296 -19 154 10 217 -19 b 474 58 358 -19 417 7 l 474 -19 l 514 -19 l 714 63 l 701 89 b 654 78 681 82 665 78 b 608 186 619 78 608 99 l 608 964 l 568 964 l 367 886 l 379 857 b 418 865 392 863 404 865 b 474 747 458 865 474 843 z m 475 118 b 363 63 436 81 399 63 b 188 336 263 63 188 168 b 342 590 188 496 253 590 b 475 401 425 590 475 525 z "},"e":{"ha":614,"x_min":0,"x_max":0,"o":"m 574 386 b 325 640 574 538 479 640 b 117 544 239 640 169 608 b 39 300 65 482 39 400 b 118 71 39 208 65 132 b 321 -19 172 11 239 -19 b 486 51 386 -19 440 4 b 572 225 532 99 560 157 l 549 243 b 361 111 510 156 447 111 b 149 386 233 111 149 214 z m 150 433 b 293 588 156 524 219 588 b 424 433 367 588 418 538 z "},"f":{"ha":481,"x_min":0,"x_max":0,"o":"m 454 554 l 454 621 l 294 621 l 294 719 b 383 906 294 858 322 906 b 546 783 479 906 463 783 b 613 846 586 783 613 808 b 556 928 613 876 593 904 b 431 964 518 951 476 964 b 232 878 346 964 281 935 b 160 664 183 821 160 749 l 160 621 l 39 621 l 39 554 l 160 554 l 160 178 b 138 58 160 115 153 76 b 42 31 124 42 92 32 l 42 0 l 410 0 l 410 31 b 315 58 361 32 329 42 b 294 178 301 75 294 115 l 294 554 z "},"g":{"ha":694,"x_min":0,"x_max":0,"o":"m 28 -174 b 313 -300 28 -246 136 -300 b 561 -224 411 -300 493 -275 b 664 -61 629 -172 664 -118 b 443 101 664 47 590 101 b 194 142 218 101 194 117 b 244 210 194 164 211 186 b 329 200 271 203 299 200 b 517 260 407 200 469 219 b 588 411 564 300 588 351 b 554 531 588 460 576 500 l 647 531 b 676 567 671 531 676 539 b 644 601 676 593 671 601 l 490 601 b 340 640 449 628 399 640 b 147 572 261 640 196 618 b 75 414 99 526 75 474 b 194 228 75 336 122 261 b 89 76 124 174 89 124 b 154 0 89 39 108 21 b 28 -174 81 -56 28 -125 z m 322 600 b 449 397 394 600 449 535 b 343 238 449 293 408 238 b 221 444 271 238 221 317 b 322 600 221 539 260 600 z m 201 -12 b 446 -25 239 -21 321 -25 b 600 -83 563 -25 600 -44 b 375 -203 600 -146 510 -203 b 151 -111 224 -203 151 -162 b 201 -12 151 -83 168 -50 z "},"h":{"ha":719,"x_min":0,"x_max":0,"o":"m 617 417 b 450 640 617 565 561 640 b 249 524 376 640 319 608 l 249 964 l 208 964 l 10 885 l 21 857 b 63 867 33 864 47 867 b 114 753 100 867 114 840 l 114 124 b 22 31 114 50 94 31 l 22 0 l 339 0 l 339 31 b 249 124 271 31 249 57 l 249 465 b 390 540 297 515 344 540 b 482 392 447 540 482 504 l 482 124 b 390 31 482 47 463 31 l 390 0 l 710 0 l 710 31 b 617 124 639 31 617 50 l 617 417 z "},"i":{"ha":382,"x_min":0,"x_max":0,"o":"m 221 640 l 31 561 l 43 533 b 79 542 54 539 67 542 b 131 432 118 542 131 525 l 131 124 b 38 31 131 50 111 31 l 38 0 l 356 0 l 356 31 b 265 124 283 31 265 50 l 265 640 z m 196 965 b 108 878 147 965 108 926 b 196 793 108 829 146 793 b 282 878 244 793 282 829 b 196 965 282 926 242 965 z "},"j":{"ha":378,"x_min":0,"x_max":0,"o":"m 225 640 l 31 561 l 42 533 b 82 542 57 539 69 542 b 135 431 122 542 135 521 l 135 -119 b 74 -239 135 -199 114 -239 b 13 -200 58 -239 38 -226 b -58 -161 -11 -174 -35 -161 b -121 -218 -93 -161 -121 -185 b 8 -300 -121 -267 -75 -300 b 269 26 182 -300 269 -192 l 269 640 z m 204 964 b 117 878 154 964 117 926 b 204 792 117 829 154 792 b 290 878 253 792 290 829 b 204 964 290 928 253 964 z "},"k":{"ha":756,"x_min":0,"x_max":0,"o":"m 438 99 b 457 57 450 81 457 67 b 414 31 457 39 443 31 l 414 0 l 742 0 l 742 31 b 661 51 710 31 682 38 b 572 147 640 67 610 99 l 389 385 l 522 507 b 614 574 558 540 589 563 b 710 590 639 585 671 590 l 710 621 l 421 621 l 421 590 b 471 560 454 590 471 581 b 426 499 471 546 456 525 l 254 346 z m 214 964 l 10 885 l 19 857 b 63 865 33 863 47 865 b 118 754 106 865 118 843 l 118 124 b 22 31 118 51 96 31 l 22 0 l 349 0 l 349 31 b 253 124 272 31 253 50 l 253 964 z "},"l":{"ha":369,"x_min":0,"x_max":0,"o":"m 214 964 l 10 885 l 22 857 b 64 865 35 863 49 865 b 119 751 104 865 119 842 l 119 124 b 25 31 119 53 97 31 l 25 0 l 347 0 l 347 31 b 254 124 275 31 254 56 l 254 964 z "},"m":{"ha":1110,"x_min":0,"x_max":0,"o":"m 211 640 l 10 561 l 19 532 b 117 447 65 546 124 554 l 117 124 b 21 31 117 47 97 29 l 21 0 l 344 0 l 344 31 b 251 124 267 29 251 47 l 251 474 b 393 540 304 518 351 540 b 493 381 460 540 493 499 l 493 124 b 400 31 493 50 468 29 l 400 0 l 718 0 l 718 31 b 628 124 650 29 628 50 l 628 474 b 767 540 681 518 726 540 b 869 386 838 540 869 501 l 869 124 b 775 31 869 50 847 29 l 775 0 l 1100 0 l 1100 31 b 1004 124 1032 29 1004 51 l 1004 424 b 829 640 1004 558 939 640 b 615 524 740 640 686 606 b 458 640 594 601 542 640 b 251 528 389 640 319 603 l 251 640 z "},"n":{"ha":719,"x_min":0,"x_max":0,"o":"m 207 640 l 10 561 l 19 532 b 65 542 36 539 51 542 b 113 447 99 542 113 521 l 113 124 b 19 31 113 50 93 31 l 19 0 l 340 0 l 340 31 b 247 124 267 31 247 51 l 247 465 b 385 540 296 515 342 540 b 481 392 447 540 481 503 l 481 124 b 389 31 481 50 465 29 l 389 0 l 710 0 l 710 31 b 615 124 633 29 615 53 l 615 417 b 449 640 615 565 560 640 b 247 526 372 640 315 610 l 247 640 z "},"o":{"ha":697,"x_min":0,"x_max":0,"o":"m 347 640 b 128 539 261 640 188 607 b 38 307 68 472 38 394 b 126 78 38 219 67 143 b 349 -19 186 13 260 -19 b 576 81 446 -19 522 14 b 660 324 632 149 660 229 b 569 546 660 410 629 483 b 347 640 510 608 435 640 z m 336 585 b 510 267 432 585 510 467 b 371 38 510 114 464 38 b 188 365 261 38 188 164 b 336 585 188 510 249 585 z "},"p":{"ha":703,"x_min":0,"x_max":0,"o":"m 97 -172 b -10 -265 97 -249 74 -267 l -10 -296 l 339 -296 l 339 -265 b 232 -172 251 -267 232 -249 l 232 35 b 368 -19 263 -1 308 -19 b 578 82 451 -19 521 14 b 664 340 635 150 664 236 b 596 557 664 431 642 503 b 432 640 551 613 497 640 b 235 513 356 640 279 589 l 232 513 l 232 640 l 190 640 l -11 561 l -1 533 b 44 544 17 540 32 544 b 97 433 83 544 97 521 z m 232 447 b 368 528 275 501 319 528 b 522 269 458 528 522 440 b 367 29 522 121 451 29 b 232 193 278 29 232 88 z "},"q":{"ha":700,"x_min":0,"x_max":0,"o":"m 567 640 l 497 596 b 365 640 460 625 417 640 b 126 538 267 640 188 606 b 35 282 65 469 35 383 b 106 65 35 194 58 122 b 279 -19 153 8 211 -19 b 474 90 351 -19 425 29 l 474 -172 b 454 -246 474 -210 467 -235 b 367 -265 442 -258 413 -264 l 367 -296 l 715 -296 l 715 -265 b 628 -246 669 -264 640 -257 b 608 -172 615 -235 608 -210 l 608 640 z m 474 157 b 353 89 432 111 392 89 b 185 333 254 89 185 168 b 347 592 185 496 251 592 b 474 446 425 592 474 542 z "},"r":{"ha":500,"x_min":0,"x_max":0,"o":"m 210 640 l 8 561 l 18 533 b 67 542 39 539 54 542 b 117 447 104 542 117 521 l 117 124 b 21 31 117 56 92 31 l 21 0 l 367 0 l 367 31 b 251 138 276 31 251 54 l 251 424 b 339 535 286 497 315 535 b 376 510 346 535 358 526 b 428 486 394 494 411 486 b 499 561 468 486 499 518 b 413 640 499 611 468 640 b 281 558 354 640 310 597 b 253 515 260 531 257 522 l 253 640 z "},"s":{"ha":540,"x_min":0,"x_max":0,"o":"m 428 640 b 399 614 425 622 415 614 b 339 626 388 614 368 618 b 261 640 310 636 285 640 b 65 460 143 640 65 561 b 386 115 65 238 386 268 b 288 31 386 65 350 31 b 97 213 192 31 114 108 l 67 213 l 67 -10 l 97 -10 b 122 8 100 3 108 8 b 181 -6 126 8 146 4 b 282 -19 215 -15 250 -19 b 503 169 417 -19 503 58 b 279 392 503 300 379 349 b 158 511 213 421 158 460 b 257 590 158 557 197 590 b 428 428 351 590 413 517 l 458 428 l 458 640 z "},"t":{"ha":401,"x_min":0,"x_max":0,"o":"m 229 811 l 193 811 b 117 672 169 751 143 704 b 8 590 90 640 54 614 l 8 554 l 94 554 l 94 136 b 236 -10 94 40 147 -10 b 393 114 307 -10 358 32 l 363 114 b 294 69 346 85 324 69 b 229 186 250 69 229 101 l 229 554 l 375 554 l 375 621 l 229 621 z "},"u":{"ha":726,"x_min":0,"x_max":0,"o":"m 375 621 l 375 590 b 478 482 460 590 478 569 l 478 168 b 339 83 440 124 382 83 b 242 207 271 83 242 119 l 242 621 l 4 621 l 4 590 b 88 568 47 589 75 582 b 107 482 100 556 107 526 l 107 203 b 276 -19 107 54 164 -19 b 478 96 350 -19 418 19 l 478 -19 l 518 -19 l 715 63 l 706 89 b 657 78 688 82 671 78 b 613 186 625 78 613 104 l 613 621 z "},"v":{"ha":713,"x_min":0,"x_max":0,"o":"m 276 468 b 254 540 261 506 254 529 b 336 590 254 581 282 590 l 336 621 l 11 621 l 11 590 b 79 565 42 589 64 581 b 135 465 94 550 113 517 l 342 -19 l 390 -19 l 603 496 b 703 590 632 567 654 590 l 703 621 l 483 621 l 483 590 b 551 554 538 589 551 581 b 533 488 551 542 546 519 l 401 163 z "},"w":{"ha":1035,"x_min":0,"x_max":0,"o":"m 619 500 b 608 544 613 521 608 535 b 685 590 608 575 633 590 l 685 621 l 365 621 l 365 590 b 471 511 422 590 449 571 l 499 436 l 375 167 l 258 489 b 242 550 247 521 242 540 b 293 590 242 576 258 590 l 293 621 l 11 621 l 11 590 b 68 568 36 588 56 581 b 111 486 81 557 94 529 l 304 -19 l 353 -19 l 528 364 l 678 -19 l 732 -19 l 932 501 b 1025 590 956 563 979 589 l 1025 621 l 817 621 l 817 590 b 882 553 860 590 882 578 b 864 488 882 540 876 519 l 742 175 z "},"x":{"ha":714,"x_min":0,"x_max":0,"o":"m 165 157 b 132 113 160 147 139 122 l 118 93 b 89 60 106 76 100 72 b 26 31 69 40 47 31 l 26 0 l 242 0 l 242 31 b 181 57 201 31 181 39 b 238 154 181 71 200 103 l 318 265 l 393 156 b 444 60 428 106 444 74 b 386 31 444 40 425 31 l 386 0 l 697 0 l 697 31 b 626 53 668 31 644 38 b 543 156 608 68 581 101 l 394 368 l 476 476 b 632 590 536 556 575 586 l 632 621 l 406 621 l 406 590 b 453 563 438 590 453 581 b 388 447 453 539 431 501 l 365 418 l 333 463 b 279 563 297 518 279 551 b 331 590 279 581 296 590 l 331 621 l 19 621 l 19 590 b 97 564 51 589 78 581 b 179 465 117 549 144 515 l 285 313 z "},"y":{"ha":718,"x_min":0,"x_max":0,"o":"m 324 -69 b 233 -186 294 -147 264 -186 b 139 -154 213 -186 174 -154 b 65 -224 94 -154 65 -185 b 156 -300 65 -268 104 -300 b 365 -125 246 -300 317 -242 l 625 518 b 711 590 643 567 672 590 l 711 621 l 500 621 l 500 590 b 563 556 542 590 563 579 b 543 485 563 540 556 517 l 418 179 l 286 456 b 258 540 268 493 258 521 b 329 590 258 574 282 590 l 329 621 l 10 621 l 10 590 b 78 558 39 588 61 576 b 147 442 96 540 118 501 l 354 14 z "},"z":{"ha":597,"x_min":0,"x_max":0,"o":"m 538 193 b 496 79 531 133 517 94 b 371 56 475 64 433 56 l 200 56 l 574 589 l 574 621 l 61 621 l 61 444 l 92 444 b 129 544 99 497 111 531 b 249 565 149 558 189 565 l 397 565 l 22 31 l 22 0 l 557 0 l 568 193 z "},"{":{"ha":667,"x_min":0,"x_max":0,"o":"m 144 311 b 279 171 235 300 279 253 b 264 63 279 146 274 110 b 250 -40 254 17 250 -18 b 333 -218 250 -106 278 -165 b 522 -300 389 -272 451 -299 l 522 -271 b 375 -106 435 -264 375 -194 b 389 0 375 -81 379 -46 b 404 101 399 46 404 79 b 210 331 404 218 339 294 l 210 333 b 401 563 338 369 401 446 b 386 667 401 588 396 622 b 372 769 376 713 372 746 b 522 932 372 858 433 922 l 522 964 b 333 882 451 963 389 936 b 250 704 278 829 250 769 b 264 597 250 679 254 643 b 279 493 274 551 279 517 b 144 349 279 408 228 358 l 144 311 z "},"|":{"ha":278,"x_min":0,"x_max":0,"o":"m 104 964 l 104 -300 l 172 -300 l 172 964 z "},"}":{"ha":667,"x_min":0,"x_max":0,"o":"m 519 349 b 383 493 436 360 383 408 b 397 600 383 518 388 554 b 413 704 407 647 413 682 b 331 883 413 771 385 831 b 142 964 276 936 213 963 l 142 932 b 292 769 231 922 292 858 b 276 664 292 744 286 710 b 263 563 267 618 263 585 b 454 333 263 446 326 369 l 454 331 b 260 101 325 294 260 218 b 274 -3 260 76 264 42 b 289 -106 283 -49 289 -82 b 142 -271 289 -194 229 -264 l 142 -300 b 331 -219 213 -299 276 -272 b 413 -40 385 -167 413 -107 b 397 67 413 -15 407 21 b 383 171 388 113 383 147 b 519 311 383 253 429 300 l 519 349 z "},"~":{"ha":751,"x_min":0,"x_max":0,"o":"m 686 571 b 564 451 679 499 636 451 b 401 515 532 451 478 472 b 224 579 325 558 267 579 b 82 510 164 579 117 556 b 29 351 47 464 31 411 l 67 351 b 189 471 74 424 117 471 b 351 407 221 471 275 450 b 529 343 428 364 486 343 b 669 411 589 343 635 365 b 724 571 704 457 722 511 l 686 571 z "}," ":{"ha":347,"x_min":0,"x_max":0,"o":""},"¡":{"ha":463,"x_min":0,"x_max":0,"o":"m 214 397 b 183 172 207 343 197 268 l 150 -72 b 136 -190 140 -139 136 -178 b 231 -300 136 -264 168 -300 b 325 -190 288 -300 325 -258 b 311 -71 325 -178 321 -137 b 278 175 303 -4 292 78 l 247 397 z m 142 572 b 231 483 142 526 181 483 b 317 574 281 483 317 524 b 231 660 317 622 281 660 b 142 572 182 660 142 621 z "},"¢":{"ha":694,"x_min":0,"x_max":0,"o":"m 442 536 b 468 465 446 529 458 483 b 532 425 478 449 500 425 b 601 492 578 425 601 447 b 475 625 601 551 546 603 l 575 893 l 511 893 l 421 638 b 379 640 410 639 396 640 b 161 547 293 640 221 610 b 74 310 103 486 74 407 b 199 31 74 188 122 85 l 93 -257 l 150 -257 l 247 3 b 349 -19 276 -12 310 -19 b 522 54 415 -19 474 6 b 618 231 572 103 604 163 l 594 243 b 403 110 553 154 489 110 b 299 146 360 110 325 122 z m 257 188 b 213 374 228 228 213 289 b 357 585 213 503 269 585 b 397 578 372 585 386 582 z "},"£":{"ha":694,"x_min":0,"x_max":0,"o":"m 496 518 l 325 518 l 317 603 b 310 706 313 649 310 683 b 425 896 310 840 346 896 b 499 825 471 896 496 872 b 560 739 501 768 522 739 b 615 801 592 739 615 764 b 568 894 615 833 600 864 b 443 940 536 925 494 940 b 244 851 358 940 293 911 b 174 633 197 792 174 719 b 179 518 174 610 175 572 l 53 518 l 53 439 l 188 439 b 204 228 199 361 204 290 b 201 172 204 217 203 199 b 156 178 185 176 169 178 b 38 69 88 178 38 135 b 122 -19 38 18 72 -19 b 249 78 171 -19 214 13 l 317 29 b 379 -1 329 21 350 11 b 463 -19 408 -14 436 -19 b 603 46 521 -19 568 3 b 665 203 638 89 658 142 l 633 211 b 492 107 613 142 565 107 b 388 122 457 107 414 115 b 335 140 375 126 358 133 l 286 156 b 331 400 315 236 331 318 l 331 439 l 496 439 z m 193 110 b 124 28 182 65 156 28 b 86 76 99 28 86 44 b 142 128 86 106 108 128 b 193 110 163 128 181 122 z "},"¤":{"ha":694,"x_min":0,"x_max":0,"o":"m 201 578 b 161 458 175 543 161 504 b 203 332 161 410 175 368 l 94 224 l 143 174 l 253 282 b 375 247 289 258 329 247 b 494 285 419 247 460 260 l 607 174 l 656 222 l 543 333 b 582 457 569 369 582 411 b 544 572 582 500 569 538 l 658 690 l 610 739 l 494 622 b 371 663 460 649 418 663 b 253 625 329 663 290 650 l 140 739 l 90 690 z m 511 457 b 374 313 511 374 453 313 b 232 458 290 313 232 374 b 369 597 232 536 292 597 b 511 457 451 597 511 539 z "},"¥":{"ha":694,"x_min":0,"x_max":0,"o":"m 451 464 l 694 464 l 694 525 l 481 525 l 536 651 l 694 651 l 694 713 l 560 713 l 576 750 b 635 861 601 807 621 844 b 701 889 650 879 672 888 l 701 919 l 451 919 l 451 889 b 526 851 508 889 526 878 b 511 793 526 835 521 815 l 478 713 l 282 713 l 249 793 b 231 853 236 828 231 847 b 313 889 231 876 246 889 l 313 919 l -7 919 l -7 889 b 100 782 47 888 68 860 l 129 713 l 1 713 l 1 651 l 151 651 l 206 525 l 1 525 l 1 464 l 233 464 l 272 382 l 272 150 b 251 53 272 100 265 68 b 164 31 239 38 210 31 l 164 0 l 528 0 l 528 31 b 440 53 483 31 454 38 b 421 150 428 68 421 101 l 421 396 z m 378 479 l 304 651 l 451 651 z "},"¦":{"ha":278,"x_min":0,"x_max":0,"o":"m 106 122 l 106 -300 l 174 -300 l 174 122 z m 106 964 l 106 543 l 174 543 l 174 964 z "},"§":{"ha":699,"x_min":0,"x_max":0,"o":"m 249 568 b 94 340 146 508 94 433 b 321 47 94 213 222 122 b 444 -131 389 -4 444 -68 b 336 -233 444 -190 396 -233 b 258 -183 288 -233 258 -215 b 271 -115 258 -167 271 -132 b 218 -56 271 -78 250 -56 b 157 -121 183 -56 157 -83 b 331 -272 157 -210 235 -272 b 539 -71 449 -272 539 -189 b 453 100 539 -18 510 39 b 606 326 554 157 606 232 b 379 622 607 460 478 550 b 257 800 313 674 257 735 b 365 904 257 860 304 904 b 440 844 415 904 440 885 b 429 779 440 822 429 792 b 489 722 429 746 454 722 b 543 782 521 722 543 749 b 365 943 543 876 467 943 b 217 886 306 943 257 924 b 158 743 178 849 158 800 b 249 568 158 689 189 631 z m 279 538 b 347 479 292 525 315 506 b 426 415 381 454 407 433 b 510 260 467 381 510 317 b 422 131 510 207 481 164 b 332 201 408 144 378 168 b 225 299 286 236 250 268 b 188 401 200 331 188 364 b 279 538 188 457 218 503 z "},"¨":{"ha":463,"x_min":0,"x_max":0,"o":"m 107 756 b 189 836 151 756 189 792 b 107 919 189 882 151 919 b 25 836 61 919 25 882 b 107 756 25 792 58 756 z m 271 836 b 351 756 271 790 306 756 b 435 836 397 756 435 790 b 351 919 435 885 397 919 b 271 836 306 919 271 885 z "},"©":{"ha":1056,"x_min":0,"x_max":0,"o":"m 739 769 b 703 738 731 749 718 738 b 643 753 694 738 675 743 b 550 769 613 764 582 769 b 307 681 451 769 369 740 b 214 451 244 621 214 544 b 307 239 214 367 244 296 b 533 154 369 182 446 154 b 792 292 644 154 731 200 l 761 314 b 564 203 713 240 647 203 b 353 472 431 203 353 304 b 407 658 353 547 371 610 b 551 732 444 707 492 732 b 744 579 651 732 718 678 l 785 579 l 771 769 z m 1008 460 b 872 806 1008 600 963 715 b 528 940 782 896 667 940 b 189 799 396 940 282 893 b 49 460 96 706 49 592 b 189 119 49 328 96 214 b 528 -21 282 26 396 -21 b 867 119 660 -21 774 26 b 1008 460 961 214 1008 328 z m 957 460 b 832 150 957 339 915 235 b 528 22 750 65 649 22 b 225 151 410 22 308 65 b 100 460 142 239 100 342 b 221 765 100 578 140 679 b 528 896 303 853 404 896 b 835 774 651 896 754 856 b 957 460 917 692 957 588 z "},"ª":{"ha":433,"x_min":0,"x_max":0,"o":"m 357 808 b 201 939 357 896 306 939 b 36 843 94 939 36 897 b 81 799 36 817 54 799 b 131 854 114 799 131 817 b 183 907 131 889 149 907 b 249 800 232 907 249 879 b 14 622 94 746 14 696 b 115 533 14 571 50 533 b 249 592 168 533 213 553 b 308 533 253 553 274 533 b 419 581 342 533 379 549 l 419 618 b 375 596 400 603 385 596 b 357 626 363 596 357 606 z m 249 628 b 176 590 219 603 196 590 b 121 650 143 590 121 615 b 190 738 121 689 161 725 l 249 763 z "},"«":{"ha":703,"x_min":0,"x_max":0,"o":"m 192 314 l 351 633 l 294 633 l 29 314 l 294 -6 l 351 -6 z m 506 314 l 665 633 l 607 633 l 339 314 l 607 -6 l 665 -6 z "},"¬":{"ha":783,"x_min":0,"x_max":0,"o":"m 28 519 l 664 519 l 664 317 l 757 317 l 757 613 l 28 613 z "},"­":{"ha":463,"x_min":0,"x_max":0,"o":"m 56 268 l 407 268 l 407 382 l 56 382 z "},"®":{"ha":1056,"x_min":0,"x_max":0,"o":"m 335 314 b 264 203 335 221 321 203 l 264 172 l 525 172 l 525 203 b 449 263 464 203 449 218 l 449 440 l 483 440 l 665 172 l 822 172 l 822 203 b 776 213 801 203 786 206 b 733 267 767 219 753 238 l 603 457 b 754 610 690 475 754 526 b 525 760 754 699 675 760 l 271 760 l 271 729 b 335 621 322 729 335 711 z m 449 715 b 507 724 464 721 483 724 b 625 599 578 724 625 675 b 461 479 625 519 571 479 l 449 479 z m 1008 460 b 869 801 1008 594 963 708 b 528 940 776 894 663 940 b 182 801 390 940 275 894 b 43 460 89 710 43 596 b 183 118 43 325 90 211 b 528 -21 276 25 392 -21 b 867 115 660 -21 774 25 b 1008 460 961 206 1008 321 z m 957 460 b 831 144 957 331 915 226 b 528 22 747 63 646 22 b 221 147 407 22 304 64 b 97 460 139 232 97 336 b 217 771 97 585 138 689 b 528 896 296 854 400 896 b 833 768 650 896 751 853 b 957 460 915 683 957 581 z "},"¯":{"ha":463,"x_min":0,"x_max":0,"o":"m 15 786 l 447 786 l 447 890 l 15 890 z "},"°":{"ha":556,"x_min":0,"x_max":0,"o":"m 488 733 b 425 879 488 790 467 839 b 276 939 385 919 335 939 b 129 879 219 939 171 919 b 67 735 88 839 67 792 b 128 585 67 675 88 625 b 281 524 168 544 219 524 b 426 585 338 524 386 544 b 488 733 467 625 488 675 z m 415 733 b 279 589 415 650 358 589 b 138 735 196 589 138 650 b 275 874 138 813 197 874 b 415 733 357 874 415 815 z "},"±":{"ha":783,"x_min":0,"x_max":0,"o":"m 757 96 l 757 164 l 428 164 l 428 425 l 757 425 l 757 493 l 428 493 l 428 826 l 357 826 l 357 493 l 28 493 l 28 425 l 357 425 l 357 164 l 28 164 l 28 96 z "},"²":{"ha":417,"x_min":0,"x_max":0,"o":"m 360 558 b 269 519 344 532 315 519 l 131 519 b 147 533 135 522 140 526 b 218 593 179 560 203 579 l 281 656 b 357 808 332 710 357 760 b 192 939 357 886 293 939 b 28 797 101 939 40 888 l 58 797 b 167 867 79 843 115 867 b 260 776 224 867 260 828 b 199 643 260 733 228 678 b 133 576 185 625 163 603 b 72 522 104 550 85 532 b 13 475 61 513 42 497 l 13 450 l 346 450 l 386 558 z "},"³":{"ha":417,"x_min":0,"x_max":0,"o":"m 64 818 b 160 875 89 856 121 875 b 236 807 210 875 236 847 b 119 706 236 744 185 710 l 119 678 b 274 568 208 678 274 646 b 186 486 274 519 235 486 b 122 501 171 486 149 492 b 65 518 96 513 78 518 b 24 486 42 518 24 504 b 132 440 24 456 60 440 b 289 482 193 440 246 454 b 354 610 332 511 354 553 b 260 733 354 669 322 711 b 335 835 303 751 335 797 b 192 939 335 897 282 939 b 38 832 119 939 68 903 l 64 818 z "},"´":{"ha":463,"x_min":0,"x_max":0,"o":"m 154 758 l 185 758 l 394 993 l 217 993 z "},"µ":{"ha":694,"x_min":0,"x_max":0,"o":"m 71 94 b 49 -96 71 31 64 -33 b 28 -217 35 -160 28 -200 b 97 -300 28 -265 54 -300 b 172 -217 147 -300 172 -272 b 154 -106 172 -196 167 -160 b 135 28 142 -53 136 -8 l 138 28 b 235 -19 164 -4 196 -19 b 436 97 311 -19 379 19 b 554 -19 444 19 483 -19 b 690 138 643 -19 689 50 l 656 138 b 610 61 654 99 639 61 b 569 165 581 61 569 86 l 569 621 l 436 621 l 436 160 b 299 72 392 101 346 72 b 204 238 233 72 204 114 l 204 621 l 71 621 z "},"¶":{"ha":665,"x_min":0,"x_max":0,"o":"m 653 869 l 653 919 l 315 919 b 13 663 121 919 13 825 b 338 407 13 485 142 407 l 338 -300 l 396 -300 l 396 869 l 510 869 l 510 -300 l 567 -300 l 567 869 z "},"·":{"ha":347,"x_min":0,"x_max":0,"o":"m 174 374 b 261 460 222 374 261 410 b 174 547 261 510 224 547 b 88 460 125 547 88 510 b 174 374 88 411 124 374 z "},"¸":{"ha":463,"x_min":0,"x_max":0,"o":"m 153 -132 b 246 -203 215 -136 246 -160 b 169 -267 246 -243 214 -267 b 118 -258 151 -267 135 -264 l 111 -289 b 196 -300 136 -296 164 -300 b 374 -175 306 -300 374 -247 b 232 -75 374 -114 317 -75 l 257 13 l 200 13 z "},"¹":{"ha":417,"x_min":0,"x_max":0,"o":"m 96 846 b 138 858 114 854 128 858 b 163 758 156 858 163 850 l 163 533 b 93 481 163 489 150 481 l 93 450 l 326 450 l 326 481 b 257 533 267 481 257 490 l 257 939 l 229 939 l 83 876 z "},"º":{"ha":461,"x_min":0,"x_max":0,"o":"m 431 739 b 376 881 431 794 413 842 b 239 939 340 919 294 939 b 25 725 110 939 25 849 b 83 588 25 669 44 624 b 231 533 122 551 171 533 b 374 590 288 533 336 553 b 431 739 411 629 431 679 z m 321 696 b 240 575 321 615 294 575 b 165 636 210 575 185 596 b 136 776 146 676 136 724 b 213 899 136 858 161 899 b 290 833 244 899 269 876 b 321 696 311 790 321 744 z "},"»":{"ha":700,"x_min":0,"x_max":0,"o":"m 510 314 l 349 -6 l 408 -6 l 672 314 l 408 633 l 349 633 z m 197 314 l 36 -6 l 94 -6 l 361 314 l 94 633 l 36 633 z "},"¼":{"ha":1042,"x_min":0,"x_max":0,"o":"m 956 178 l 956 488 l 888 488 l 633 172 l 633 114 l 858 114 l 858 0 l 956 0 l 956 114 l 1024 114 l 1024 178 z m 696 178 l 856 375 l 858 375 l 858 178 z m 96 847 b 163 760 151 864 161 885 l 163 533 b 93 481 163 490 153 481 l 93 450 l 326 450 l 326 481 b 257 533 269 481 257 490 l 257 939 l 229 939 l 83 876 z m 810 939 l 178 -36 l 250 -36 l 883 939 z "},"½":{"ha":1069,"x_min":0,"x_max":0,"o":"m 96 847 b 138 860 117 856 131 860 b 163 758 158 860 163 846 l 163 533 b 93 481 163 490 153 481 l 93 450 l 326 450 l 326 481 b 257 533 269 481 257 490 l 257 939 l 229 939 l 83 876 z m 803 939 l 165 -36 l 242 -36 l 872 939 z m 1011 104 b 921 65 996 78 967 65 l 782 65 b 814 92 785 67 796 76 l 851 124 l 886 157 b 925 196 904 174 917 186 b 983 274 942 214 972 251 b 1007 356 996 297 1007 329 b 843 486 1007 435 942 486 b 679 344 753 486 692 435 l 710 344 b 818 413 728 390 764 413 b 911 324 875 413 911 374 b 850 190 911 281 879 225 b 785 124 836 172 814 150 b 724 69 756 97 736 79 b 664 22 713 60 693 44 l 664 -3 l 997 -3 l 1038 104 z "},"¾":{"ha":1053,"x_min":0,"x_max":0,"o":"m 806 939 l 172 -36 l 249 -36 l 878 939 z m 956 178 l 956 488 l 888 488 l 633 172 l 633 114 l 858 114 l 858 0 l 956 0 l 956 114 l 1024 114 l 1024 178 z m 696 178 l 856 374 l 858 375 l 858 178 z m 64 819 b 160 875 89 857 121 875 b 236 807 211 875 236 853 b 119 706 236 744 185 710 l 119 678 b 274 568 208 678 274 646 b 186 486 274 519 235 486 b 122 501 169 486 149 492 b 65 518 96 513 78 518 b 24 486 42 518 24 504 b 132 440 24 456 60 440 b 289 482 193 440 246 454 b 354 610 332 511 354 553 b 260 733 354 669 322 711 b 335 835 303 751 335 794 b 192 939 335 897 282 939 b 38 832 119 939 68 903 z "},"¿":{"ha":617,"x_min":0,"x_max":0,"o":"m 310 424 b 139 117 310 292 214 200 b 47 -85 89 61 47 -11 b 308 -300 47 -208 135 -300 b 499 -239 392 -300 456 -279 b 564 -104 542 -199 564 -153 b 482 4 564 -39 526 4 b 422 -56 447 4 422 -18 b 443 -118 422 -74 429 -94 b 464 -175 457 -142 464 -160 b 339 -256 464 -221 411 -256 b 194 -72 251 -256 194 -190 b 269 157 194 4 232 92 b 344 424 307 222 344 325 z m 325 483 b 386 633 400 476 440 583 b 236 571 339 689 229 650 b 325 483 236 522 275 483 z "},"À":{"ha":1031,"x_min":0,"x_max":0,"o":"m 679 193 b 710 93 700 147 710 114 b 615 31 710 54 678 33 l 615 0 l 1018 0 l 1018 31 b 926 67 979 32 949 44 b 854 190 904 90 881 131 l 531 940 l 497 940 l 157 168 b 93 63 133 115 113 81 b 13 31 75 44 47 35 l 13 0 l 319 0 l 319 31 b 210 90 246 35 210 56 b 239 182 210 104 219 135 l 292 306 l 632 306 z m 317 361 l 461 707 l 608 361 z m 496 985 l 528 985 l 467 1215 l 289 1215 z "},"Á":{"ha":1031,"x_min":0,"x_max":0,"o":"m 679 193 b 710 93 700 147 710 114 b 615 31 710 54 678 33 l 615 0 l 1018 0 l 1018 31 b 926 67 979 32 949 44 b 854 190 904 90 881 131 l 531 940 l 497 940 l 157 168 b 93 63 133 115 113 81 b 13 31 75 44 47 35 l 13 0 l 319 0 l 319 31 b 210 90 246 35 210 56 b 239 182 210 104 219 135 l 292 306 l 632 306 z m 317 361 l 461 707 l 608 361 z m 506 985 l 536 985 l 746 1219 l 568 1219 z "},"Â":{"ha":1031,"x_min":0,"x_max":0,"o":"m 679 193 b 710 93 700 147 710 114 b 615 31 710 54 678 33 l 615 0 l 1018 0 l 1018 31 b 926 67 979 32 949 44 b 854 190 904 90 881 131 l 531 940 l 497 940 l 157 168 b 93 63 133 115 113 81 b 13 31 75 44 47 35 l 13 0 l 319 0 l 319 31 b 210 90 246 35 210 56 b 239 182 210 104 219 135 l 292 306 l 632 306 z m 317 361 l 461 707 l 608 361 z m 321 978 l 349 978 l 513 1113 l 676 978 l 704 978 l 583 1200 l 442 1200 z "},"Ã":{"ha":1031,"x_min":0,"x_max":0,"o":"m 679 193 b 710 93 700 147 710 114 b 615 31 710 54 678 33 l 615 0 l 1018 0 l 1018 31 b 926 67 979 32 949 44 b 854 190 904 90 881 131 l 531 940 l 497 940 l 157 168 b 93 63 133 115 113 81 b 13 31 75 44 47 35 l 13 0 l 319 0 l 319 31 b 210 90 246 35 210 56 b 239 182 210 104 219 135 l 292 306 l 632 306 z m 317 361 l 461 707 l 608 361 z m 324 992 b 389 1079 332 1050 354 1079 b 442 1057 401 1079 425 1067 b 482 1029 451 1051 475 1035 b 599 985 528 1000 567 985 b 700 1042 642 985 675 1004 b 736 1169 725 1079 738 1122 l 713 1169 b 651 1078 703 1108 683 1078 b 596 1099 635 1078 614 1089 b 554 1128 586 1106 564 1122 b 436 1172 508 1157 469 1172 b 335 1117 393 1172 360 1154 b 300 992 311 1079 299 1038 z "},"Ä":{"ha":1031,"x_min":0,"x_max":0,"o":"m 679 193 b 710 93 700 147 710 114 b 615 31 710 54 678 33 l 615 0 l 1018 0 l 1018 31 b 926 67 979 32 949 44 b 854 190 904 90 881 131 l 531 940 l 497 940 l 157 168 b 93 63 133 115 113 81 b 13 31 75 44 47 35 l 13 0 l 319 0 l 319 31 b 210 90 246 35 210 56 b 239 182 210 104 219 135 l 292 306 l 632 306 z m 317 361 l 461 707 l 608 361 z m 390 1003 b 472 1083 435 1003 472 1039 b 390 1167 472 1129 435 1167 b 308 1083 344 1167 308 1129 b 390 1003 308 1039 342 1003 z m 554 1083 b 635 1003 554 1038 589 1003 b 718 1083 681 1003 718 1038 b 635 1167 718 1132 681 1167 b 554 1083 589 1167 554 1132 z "},"Å":{"ha":1031,"x_min":0,"x_max":0,"o":"m 679 193 b 710 93 700 147 710 114 b 615 31 710 54 678 33 l 615 0 l 1018 0 l 1018 31 b 926 67 979 32 949 44 b 854 190 904 90 881 131 l 531 940 l 497 940 l 157 168 b 93 63 133 115 113 81 b 13 31 75 44 47 35 l 13 0 l 319 0 l 319 31 b 210 90 246 35 210 56 b 239 182 210 104 219 135 l 292 306 l 632 306 z m 317 361 l 461 707 l 608 361 z m 517 1199 b 383 1068 443 1199 383 1140 b 517 938 383 996 439 938 b 649 1068 593 938 649 994 b 517 1199 649 1142 593 1199 z m 442 1068 b 517 1143 442 1113 474 1143 b 590 1068 557 1143 590 1113 b 517 993 590 1025 557 993 b 442 1068 474 993 442 1025 z "},"Æ":{"ha":1267,"x_min":0,"x_max":0,"o":"m 590 182 b 567 57 590 117 582 75 b 460 31 551 39 517 31 l 460 0 l 1157 0 l 1235 235 l 1204 235 b 1097 94 1164 167 1129 121 b 965 56 1067 68 1022 56 l 824 56 b 749 125 764 56 749 69 l 749 450 l 888 450 b 1008 425 947 450 988 442 b 1049 314 1031 410 1044 372 l 1079 314 l 1079 646 l 1049 646 b 1010 535 1044 588 1032 550 b 888 511 988 519 947 511 l 749 511 l 749 863 l 940 863 b 1076 835 1006 863 1051 853 b 1135 711 1103 817 1122 776 l 1165 711 l 1153 919 l 386 919 l 386 889 b 504 836 479 889 504 875 b 444 694 504 815 485 768 l 157 160 b 8 31 111 74 61 31 l 8 0 l 290 0 l 290 31 b 197 79 206 33 197 56 b 253 210 197 94 215 138 l 328 351 l 590 351 z m 590 844 l 590 406 l 358 406 l 588 844 z "},"Ç":{"ha":926,"x_min":0,"x_max":0,"o":"m 813 940 b 756 879 800 900 782 879 b 522 939 742 879 639 939 b 176 794 383 939 268 890 b 39 442 85 699 39 581 b 157 125 39 318 78 213 b 460 -19 236 38 338 -10 l 424 -132 b 517 -203 486 -136 517 -160 b 440 -267 517 -243 485 -267 b 389 -258 422 -267 406 -264 l 382 -289 b 467 -300 407 -296 435 -300 b 644 -175 576 -300 644 -247 b 503 -75 644 -114 588 -75 l 518 -19 b 878 215 685 -14 794 61 l 851 232 b 718 90 807 167 763 119 b 551 47 675 61 619 47 b 313 146 456 47 375 81 b 219 443 250 213 219 311 b 304 768 219 583 247 692 b 528 883 361 844 436 883 b 836 628 693 883 785 793 l 863 628 l 842 940 z "},"È":{"ha":857,"x_min":0,"x_max":0,"o":"m 533 863 b 671 833 601 863 647 853 b 728 710 694 815 714 774 l 757 710 l 744 919 l 19 919 l 19 889 b 128 861 76 889 113 879 b 150 724 143 843 150 797 l 150 182 b 126 56 150 115 142 74 b 19 31 111 39 76 31 l 19 0 l 749 0 l 826 235 l 796 235 b 690 93 756 167 721 119 b 560 56 661 68 617 56 l 379 56 b 308 119 325 56 308 74 l 308 450 l 481 450 b 604 424 543 450 585 442 b 642 314 624 407 636 371 l 671 314 l 671 646 l 642 646 b 606 536 638 589 626 553 b 481 511 585 519 543 511 l 308 511 l 308 863 z m 431 985 l 463 985 l 401 1215 l 224 1215 z "},"É":{"ha":857,"x_min":0,"x_max":0,"o":"m 533 863 b 671 833 601 863 647 853 b 728 710 694 815 714 774 l 757 710 l 744 919 l 19 919 l 19 889 b 128 861 76 889 113 879 b 150 724 143 843 150 797 l 150 182 b 126 56 150 115 142 74 b 19 31 111 39 76 31 l 19 0 l 749 0 l 826 235 l 796 235 b 690 93 756 167 721 119 b 560 56 661 68 617 56 l 379 56 b 308 119 325 56 308 74 l 308 450 l 481 450 b 604 424 543 450 585 442 b 642 314 624 407 636 371 l 671 314 l 671 646 l 642 646 b 606 536 638 589 626 553 b 481 511 585 519 543 511 l 308 511 l 308 863 z m 386 985 l 417 985 l 626 1219 l 449 1219 z "},"Ê":{"ha":857,"x_min":0,"x_max":0,"o":"m 533 863 b 671 833 601 863 647 853 b 728 710 694 815 714 774 l 757 710 l 744 919 l 19 919 l 19 889 b 128 861 76 889 113 879 b 150 724 143 843 150 797 l 150 182 b 126 56 150 115 142 74 b 19 31 111 39 76 31 l 19 0 l 749 0 l 826 235 l 796 235 b 690 93 756 167 721 119 b 560 56 661 68 617 56 l 379 56 b 308 119 325 56 308 74 l 308 450 l 481 450 b 604 424 543 450 585 442 b 642 314 624 407 636 371 l 671 314 l 671 646 l 642 646 b 606 536 638 589 626 553 b 481 511 585 519 543 511 l 308 511 l 308 863 z m 226 978 l 254 978 l 418 1113 l 582 978 l 610 978 l 489 1200 l 347 1200 z "},"Ë":{"ha":857,"x_min":0,"x_max":0,"o":"m 533 863 b 671 833 601 863 647 853 b 728 710 694 815 714 774 l 757 710 l 744 919 l 19 919 l 19 889 b 128 861 76 889 113 879 b 150 724 143 843 150 797 l 150 182 b 126 56 150 115 142 74 b 19 31 111 39 76 31 l 19 0 l 749 0 l 826 235 l 796 235 b 690 93 756 167 721 119 b 560 56 661 68 617 56 l 379 56 b 308 119 325 56 308 74 l 308 450 l 481 450 b 604 424 543 450 585 442 b 642 314 624 407 636 371 l 671 314 l 671 646 l 642 646 b 606 536 638 589 626 553 b 481 511 585 519 543 511 l 308 511 l 308 863 z m 281 1003 b 363 1083 325 1003 363 1039 b 281 1167 363 1129 325 1167 b 199 1083 235 1167 199 1129 b 281 1003 199 1039 232 1003 z m 444 1083 b 525 1003 444 1038 479 1003 b 608 1083 571 1003 608 1038 b 525 1167 608 1132 571 1167 b 444 1083 479 1167 444 1132 z "},"Ì":{"ha":465,"x_min":0,"x_max":0,"o":"m 311 724 b 333 858 311 794 318 840 b 442 889 349 878 385 888 l 442 919 l 22 919 l 22 889 b 131 860 79 888 115 878 b 153 724 146 842 153 797 l 153 193 b 129 60 153 124 144 79 b 22 31 114 42 78 32 l 22 0 l 442 0 l 442 31 b 333 58 385 32 349 40 b 311 193 318 76 311 121 z m 243 985 l 275 985 l 214 1215 l 36 1215 z "},"Í":{"ha":465,"x_min":0,"x_max":0,"o":"m 311 724 b 333 858 311 794 318 840 b 442 889 349 878 385 888 l 442 919 l 22 919 l 22 889 b 131 860 79 888 115 878 b 153 724 146 842 153 797 l 153 193 b 129 60 153 124 144 79 b 22 31 114 42 78 32 l 22 0 l 442 0 l 442 31 b 333 58 385 32 349 40 b 311 193 318 76 311 121 z m 211 985 l 242 985 l 451 1219 l 274 1219 z "},"Î":{"ha":465,"x_min":0,"x_max":0,"o":"m 311 724 b 333 858 311 794 318 840 b 442 889 349 878 385 888 l 442 919 l 22 919 l 22 889 b 131 860 79 888 115 878 b 153 724 146 842 153 797 l 153 193 b 129 60 153 124 144 79 b 22 31 114 42 78 32 l 22 0 l 442 0 l 442 31 b 333 58 385 32 349 40 b 311 193 318 76 311 121 z m 39 978 l 67 978 l 231 1113 l 394 978 l 422 978 l 301 1200 l 160 1200 z "},"Ï":{"ha":465,"x_min":0,"x_max":0,"o":"m 311 724 b 333 858 311 794 318 840 b 442 889 349 878 385 888 l 442 919 l 22 919 l 22 889 b 131 860 79 888 115 878 b 153 724 146 842 153 797 l 153 193 b 129 60 153 124 144 79 b 22 31 114 42 78 32 l 22 0 l 442 0 l 442 31 b 333 58 385 32 349 40 b 311 193 318 76 311 121 z m 107 1003 b 189 1083 151 1003 189 1039 b 107 1167 189 1129 151 1167 b 25 1083 61 1167 25 1129 b 107 1003 25 1039 58 1003 z m 271 1083 b 351 1003 271 1038 306 1003 b 435 1083 397 1003 435 1038 b 351 1167 435 1132 397 1167 b 271 1083 306 1167 271 1132 z "},"Ð":{"ha":1011,"x_min":0,"x_max":0,"o":"m 146 182 b 124 56 146 114 139 72 b 15 31 108 39 72 31 l 15 0 l 458 0 b 832 133 618 0 742 44 b 968 464 922 222 968 332 b 428 919 968 768 788 919 l 15 919 l 15 889 b 124 861 72 889 108 879 b 146 724 139 843 146 797 l 146 511 l 17 511 l 17 450 l 146 450 z m 304 842 b 439 860 343 854 388 860 b 693 751 546 860 631 824 b 788 460 756 679 788 582 b 635 117 788 317 744 196 b 436 57 581 76 514 57 b 304 75 390 57 346 63 l 304 450 l 565 450 l 565 511 l 304 511 z "},"Ñ":{"ha":1018,"x_min":0,"x_max":0,"o":"m 254 715 l 850 -15 l 878 -15 l 878 744 b 903 863 878 806 886 844 b 1008 889 919 881 954 889 l 1008 919 l 675 919 l 675 889 b 782 864 732 889 767 881 b 806 744 797 847 806 807 l 806 293 l 803 293 l 290 919 l 0 919 l 0 889 b 179 804 89 889 128 867 l 179 182 b 156 57 179 117 171 75 b 49 31 140 39 104 31 l 49 0 l 382 0 l 382 31 b 274 57 325 31 289 39 b 251 182 258 75 251 117 l 251 715 z m 346 992 b 411 1079 354 1050 376 1079 b 464 1057 424 1079 447 1067 b 504 1029 474 1051 497 1035 b 621 985 550 1000 589 985 b 722 1042 664 985 697 1004 b 758 1169 747 1079 760 1122 l 735 1169 b 674 1078 725 1108 706 1078 b 618 1099 657 1078 636 1089 b 576 1128 608 1106 586 1122 b 458 1172 531 1157 492 1172 b 357 1117 415 1172 382 1154 b 322 992 333 1079 321 1038 z "},"Ò":{"ha":1004,"x_min":0,"x_max":0,"o":"m 501 -21 b 833 121 638 -21 749 26 b 963 460 919 215 963 328 b 835 800 963 593 919 707 b 501 940 750 893 639 940 b 169 799 365 940 254 893 b 42 460 85 706 42 592 b 501 -21 35 208 226 -24 z m 501 40 b 222 460 322 40 222 197 b 501 881 222 719 317 881 b 782 460 683 881 782 721 b 501 40 782 192 686 40 z m 486 985 l 518 985 l 457 1215 l 279 1215 z "},"Ó":{"ha":1004,"x_min":0,"x_max":0,"o":"m 501 -21 b 833 121 638 -21 749 26 b 963 460 919 215 963 328 b 835 800 963 593 919 707 b 501 940 750 893 639 940 b 169 799 365 940 254 893 b 42 460 85 706 42 592 b 501 -21 35 208 226 -24 z m 501 40 b 222 460 322 40 222 197 b 501 881 222 719 317 881 b 782 460 683 881 782 721 b 501 40 782 192 686 40 z m 481 985 l 511 985 l 721 1219 l 543 1219 z "},"Ô":{"ha":1004,"x_min":0,"x_max":0,"o":"m 501 -21 b 833 121 638 -21 749 26 b 963 460 919 215 963 328 b 835 800 963 593 919 707 b 501 940 750 893 639 940 b 169 799 365 940 254 893 b 42 460 85 706 42 592 b 501 -21 35 208 226 -24 z m 501 40 b 222 460 322 40 222 197 b 501 881 222 719 317 881 b 782 460 683 881 782 721 b 501 40 782 192 686 40 z m 310 978 l 338 978 l 501 1113 l 665 978 l 693 978 l 572 1200 l 431 1200 z "},"Õ":{"ha":1004,"x_min":0,"x_max":0,"o":"m 501 -21 b 833 121 638 -21 749 26 b 963 460 919 215 963 328 b 835 800 963 593 919 707 b 501 940 750 893 639 940 b 169 799 365 940 254 893 b 42 460 85 706 42 592 b 501 -21 35 208 226 -24 z m 501 40 b 222 460 322 40 222 197 b 501 881 222 719 317 881 b 782 460 683 881 782 721 b 501 40 782 192 686 40 z m 303 992 b 368 1079 311 1050 333 1079 b 421 1057 381 1079 404 1067 b 461 1029 431 1051 454 1035 b 578 985 507 1000 546 985 b 679 1042 621 985 654 1004 b 715 1169 704 1079 717 1122 l 692 1169 b 631 1078 682 1108 663 1078 b 575 1099 614 1078 593 1089 b 533 1128 565 1106 543 1122 b 415 1172 488 1157 449 1172 b 314 1117 372 1172 339 1154 b 279 992 290 1079 278 1038 z "},"Ö":{"ha":1004,"x_min":0,"x_max":0,"o":"m 501 -21 b 833 121 638 -21 749 26 b 963 460 919 215 963 328 b 835 800 963 593 919 707 b 501 940 750 893 639 940 b 169 799 365 940 254 893 b 42 460 85 706 42 592 b 501 -21 35 208 226 -24 z m 501 40 b 222 460 322 40 222 197 b 501 881 222 719 317 881 b 782 460 683 881 782 721 b 501 40 782 192 686 40 z m 379 1003 b 461 1083 424 1003 461 1039 b 379 1167 461 1129 424 1167 b 297 1083 333 1167 297 1129 b 379 1003 297 1039 331 1003 z m 543 1083 b 624 1003 543 1038 578 1003 b 707 1083 669 1003 707 1038 b 624 1167 707 1132 669 1167 b 543 1083 578 1167 543 1132 z "},"×":{"ha":783,"x_min":0,"x_max":0,"o":"m 157 176 l 392 414 l 626 178 l 676 226 l 440 461 l 676 696 l 626 742 l 392 507 l 157 746 l 107 696 l 344 461 l 107 222 z "},"Ø":{"ha":1003,"x_min":0,"x_max":0,"o":"m 740 701 b 782 460 768 642 782 561 b 725 175 782 350 765 258 b 501 42 685 93 607 42 b 296 150 408 42 340 78 z m 265 213 b 222 460 236 278 222 360 b 276 742 222 569 238 658 b 501 878 317 826 394 878 b 710 763 600 878 669 839 z m 913 914 b 863 950 896 925 879 939 l 779 849 b 501 940 700 910 608 940 b 168 800 364 940 253 893 b 42 460 83 707 42 593 b 179 110 42 318 88 201 l 93 1 l 143 -35 l 228 67 b 501 -21 307 8 399 -21 b 833 119 639 -21 749 26 b 961 460 918 213 961 326 b 825 806 961 597 915 713 z "},"Ù":{"ha":1026,"x_min":0,"x_max":0,"o":"m 146 329 b 529 -21 146 96 274 -21 b 882 328 768 -21 882 111 l 882 738 b 907 860 882 800 890 842 b 1013 889 925 879 960 889 l 1013 919 l 679 919 l 679 889 b 783 861 731 889 765 879 b 810 738 801 843 810 801 l 810 389 b 536 49 810 154 719 49 b 304 376 375 49 304 142 l 304 724 b 326 860 304 794 311 840 b 435 889 342 879 378 889 l 435 919 l 15 919 l 15 889 b 121 858 69 889 104 879 b 146 724 138 838 146 793 z m 542 985 l 574 985 l 513 1215 l 335 1215 z "},"Ú":{"ha":1026,"x_min":0,"x_max":0,"o":"m 146 329 b 529 -21 146 96 274 -21 b 882 328 768 -21 882 111 l 882 738 b 907 860 882 800 890 842 b 1013 889 925 879 960 889 l 1013 919 l 679 919 l 679 889 b 783 861 731 889 765 879 b 810 738 801 843 810 801 l 810 389 b 536 49 810 154 719 49 b 304 376 375 49 304 142 l 304 724 b 326 860 304 794 311 840 b 435 889 342 879 378 889 l 435 919 l 15 919 l 15 889 b 121 858 69 889 104 879 b 146 724 138 838 146 793 z m 547 985 l 578 985 l 788 1219 l 610 1219 z "},"Û":{"ha":1026,"x_min":0,"x_max":0,"o":"m 146 329 b 529 -21 146 96 274 -21 b 882 328 768 -21 882 111 l 882 738 b 907 860 882 800 890 842 b 1013 889 925 879 960 889 l 1013 919 l 679 919 l 679 889 b 783 861 731 889 765 879 b 810 738 801 843 810 801 l 810 389 b 536 49 810 154 719 49 b 304 376 375 49 304 142 l 304 724 b 326 860 304 794 311 840 b 435 889 342 879 378 889 l 435 919 l 15 919 l 15 889 b 121 858 69 889 104 879 b 146 724 138 838 146 793 z m 364 978 l 392 978 l 556 1113 l 719 978 l 747 978 l 626 1200 l 485 1200 z "},"Ü":{"ha":1026,"x_min":0,"x_max":0,"o":"m 146 329 b 529 -21 146 96 274 -21 b 882 328 768 -21 882 111 l 882 738 b 907 860 882 800 890 842 b 1013 889 925 879 960 889 l 1013 919 l 679 919 l 679 889 b 783 861 731 889 765 879 b 810 738 801 843 810 801 l 810 389 b 536 49 810 154 719 49 b 304 376 375 49 304 142 l 304 724 b 326 860 304 794 311 840 b 435 889 342 879 378 889 l 435 919 l 15 919 l 15 889 b 121 858 69 889 104 879 b 146 724 138 838 146 793 z m 435 1003 b 517 1083 479 1003 517 1039 b 435 1167 517 1129 479 1167 b 353 1083 389 1167 353 1129 b 435 1003 353 1039 386 1003 z m 599 1083 b 679 1003 599 1038 633 1003 b 763 1083 725 1003 763 1038 b 679 1167 763 1132 725 1167 b 599 1083 633 1167 599 1132 z "},"Ý":{"ha":1018,"x_min":0,"x_max":0,"o":"m 357 763 b 326 839 336 792 326 818 b 432 889 326 876 354 888 l 432 919 l 14 919 l 14 889 b 147 803 65 886 110 857 l 429 378 l 429 192 b 404 60 429 124 421 79 b 299 31 389 40 353 31 l 299 0 l 718 0 l 718 31 b 611 60 663 31 626 40 b 588 192 596 79 588 124 l 588 396 l 814 753 b 1006 889 876 854 924 888 l 1006 919 l 671 919 l 671 889 b 765 832 733 889 765 869 b 713 717 765 810 747 771 l 554 465 z m 544 985 l 575 985 l 785 1219 l 607 1219 z "},"Þ":{"ha":778,"x_min":0,"x_max":0,"o":"m 150 193 b 128 57 150 121 143 75 b 19 31 113 39 76 31 l 19 0 l 439 0 l 439 31 b 332 60 385 31 349 40 b 308 193 317 79 308 124 l 308 207 l 417 207 b 653 278 519 207 599 231 b 736 457 708 326 736 386 b 397 711 736 626 624 711 l 308 711 l 308 726 b 333 858 308 794 317 839 b 439 889 350 879 385 889 l 439 919 l 19 919 l 19 889 b 126 861 76 889 111 879 b 150 726 142 843 150 797 z m 346 651 b 556 467 486 651 556 590 b 376 267 556 335 489 267 l 308 267 l 308 651 z "},"ß":{"ha":700,"x_min":0,"x_max":0,"o":"m 240 686 b 356 908 240 835 279 908 b 471 750 424 908 471 854 b 339 568 471 628 433 569 l 339 518 b 531 211 485 518 531 342 b 438 40 531 110 500 40 b 406 67 417 40 406 49 b 415 108 406 74 415 92 b 354 168 415 143 388 168 b 293 104 319 168 293 142 b 426 -8 293 32 356 -8 b 599 83 499 -8 556 22 b 663 289 642 146 663 214 b 476 558 663 426 603 529 l 476 561 b 608 746 564 590 608 651 b 360 964 608 881 511 964 b 107 660 200 964 107 864 l 107 124 b 13 31 107 51 86 32 l 13 0 l 240 0 z "},"à":{"ha":622,"x_min":0,"x_max":0,"o":"m 518 450 b 300 640 518 576 446 640 b 126 592 228 640 169 624 b 63 479 83 560 63 522 b 125 413 63 442 86 413 b 193 517 171 413 193 447 b 281 590 193 565 222 590 b 383 404 360 590 383 539 b 117 275 257 360 168 317 b 40 136 65 233 40 188 b 197 -19 40 38 103 -19 b 383 76 250 -19 313 13 b 464 -19 385 13 413 -19 b 613 76 515 -19 565 13 l 613 126 b 547 76 585 93 563 76 b 518 171 525 76 518 89 z m 383 128 b 261 74 335 92 294 74 b 176 165 213 74 176 114 b 383 357 176 247 228 292 z m 289 713 l 321 713 l 260 943 l 82 943 z "},"á":{"ha":622,"x_min":0,"x_max":0,"o":"m 518 450 b 300 640 518 576 446 640 b 126 592 228 640 169 624 b 63 479 83 560 63 522 b 125 413 63 442 86 413 b 193 517 171 413 193 447 b 281 590 193 565 222 590 b 383 404 360 590 383 539 b 117 275 257 360 168 317 b 40 136 65 233 40 188 b 197 -19 40 38 103 -19 b 383 76 250 -19 313 13 b 464 -19 385 13 413 -19 b 613 76 515 -19 565 13 l 613 126 b 547 76 585 93 563 76 b 518 171 525 76 518 89 z m 383 128 b 261 74 335 92 294 74 b 176 165 213 74 176 114 b 383 357 176 247 228 292 z m 272 713 l 303 713 l 513 947 l 335 947 z "},"â":{"ha":622,"x_min":0,"x_max":0,"o":"m 518 450 b 300 640 518 576 446 640 b 126 592 228 640 169 624 b 63 479 83 560 63 522 b 125 413 63 442 86 413 b 193 517 171 413 193 447 b 281 590 193 565 222 590 b 383 404 360 590 383 539 b 117 275 257 360 168 317 b 40 136 65 233 40 188 b 197 -19 40 38 103 -19 b 383 76 250 -19 313 13 b 464 -19 385 13 413 -19 b 613 76 515 -19 565 13 l 613 126 b 547 76 585 93 563 76 b 518 171 525 76 518 89 z m 383 128 b 261 74 335 92 294 74 b 176 165 213 74 176 114 b 383 357 176 247 228 292 z m 92 717 l 119 717 l 283 851 l 447 717 l 475 717 l 354 939 l 213 939 z "},"ã":{"ha":622,"x_min":0,"x_max":0,"o":"m 518 450 b 300 640 518 576 446 640 b 126 592 228 640 169 624 b 63 479 83 560 63 522 b 125 413 63 442 86 413 b 193 517 171 413 193 447 b 281 590 193 565 222 590 b 383 404 360 590 383 539 b 117 275 257 360 168 317 b 40 136 65 233 40 188 b 197 -19 40 38 103 -19 b 383 76 250 -19 313 13 b 464 -19 385 13 413 -19 b 613 76 515 -19 565 13 l 613 126 b 547 76 585 93 563 76 b 518 171 525 76 518 89 z m 383 128 b 261 74 335 92 294 74 b 176 165 213 74 176 114 b 383 357 176 247 228 292 z m 107 743 b 172 831 115 801 138 831 b 225 808 185 831 208 818 b 265 781 235 803 258 786 b 382 736 311 751 350 736 b 483 793 425 736 458 756 b 519 921 508 831 521 874 l 496 921 b 435 829 486 860 467 829 b 379 850 418 829 397 840 b 338 879 369 857 347 874 b 219 924 292 908 253 924 b 118 868 176 924 143 906 b 83 743 94 831 82 789 z "},"ä":{"ha":622,"x_min":0,"x_max":0,"o":"m 518 450 b 300 640 518 576 446 640 b 126 592 228 640 169 624 b 63 479 83 560 63 522 b 125 413 63 442 86 413 b 193 517 171 413 193 447 b 281 590 193 565 222 590 b 383 404 360 590 383 539 b 117 275 257 360 168 317 b 40 136 65 233 40 188 b 197 -19 40 38 103 -19 b 383 76 250 -19 313 13 b 464 -19 385 13 413 -19 b 613 76 515 -19 565 13 l 613 126 b 547 76 585 93 563 76 b 518 171 525 76 518 89 z m 383 128 b 261 74 335 92 294 74 b 176 165 213 74 176 114 b 383 357 176 247 228 292 z m 167 756 b 249 836 211 756 249 792 b 167 919 249 882 211 919 b 85 836 121 919 85 882 b 167 756 85 792 118 756 z m 331 836 b 411 756 331 790 365 756 b 494 836 457 756 494 790 b 411 919 494 885 457 919 b 331 836 365 919 331 885 z "},"å":{"ha":622,"x_min":0,"x_max":0,"o":"m 518 450 b 300 640 518 576 446 640 b 126 592 228 640 169 624 b 63 479 83 560 63 522 b 125 413 63 442 86 413 b 193 517 171 413 193 447 b 281 590 193 565 222 590 b 383 404 360 590 383 539 b 117 275 257 360 168 317 b 40 136 65 233 40 188 b 197 -19 40 38 103 -19 b 383 76 250 -19 313 13 b 464 -19 385 13 413 -19 b 613 76 515 -19 565 13 l 613 126 b 547 76 585 93 563 76 b 518 171 525 76 518 89 z m 383 128 b 261 74 335 92 294 74 b 176 165 213 74 176 114 b 383 357 176 247 228 292 z m 289 963 b 156 832 215 963 156 904 b 289 701 156 760 211 701 b 421 832 365 701 421 758 b 289 963 421 906 365 963 z m 214 832 b 289 907 214 876 246 907 b 363 832 329 907 363 876 b 289 757 363 789 329 757 b 214 832 246 757 214 789 z "},"æ":{"ha":921,"x_min":0,"x_max":0,"o":"m 42 138 b 201 -19 42 50 100 -19 b 419 82 278 -19 335 10 b 635 -19 465 11 525 -19 b 876 224 761 -19 849 81 l 850 242 b 663 99 810 146 747 99 b 503 294 561 99 503 167 l 503 386 l 881 386 b 649 640 876 547 799 640 b 483 571 578 640 522 617 b 299 640 454 617 392 640 b 64 482 150 640 64 565 b 128 413 64 442 90 413 b 196 517 174 413 196 447 b 278 590 196 565 224 590 b 369 449 349 590 369 553 l 369 407 b 64 228 185 335 93 278 b 42 138 49 204 42 174 z m 397 121 b 268 65 349 83 306 65 b 171 174 206 65 171 107 b 213 264 171 208 185 238 b 369 356 242 290 293 321 b 397 121 369 235 379 157 z m 504 433 b 617 581 506 524 551 581 b 731 433 693 581 731 532 z "},"ç":{"ha":625,"x_min":0,"x_max":0,"o":"m 563 244 b 372 100 519 149 457 100 b 176 375 261 100 176 207 b 329 588 176 503 239 588 b 417 514 385 588 414 563 b 500 425 421 454 449 425 b 571 493 540 425 571 454 b 506 596 571 532 549 567 b 349 640 463 625 411 640 b 133 544 264 640 193 608 b 46 310 75 481 46 403 b 114 83 46 219 68 143 b 293 -18 160 24 219 -10 l 256 -132 b 349 -203 318 -136 349 -160 b 272 -267 349 -243 317 -267 b 221 -258 254 -267 238 -264 l 214 -289 b 299 -300 239 -296 267 -300 b 476 -175 408 -300 476 -247 b 335 -75 476 -114 419 -75 l 350 -18 b 588 229 468 -6 558 100 l 563 244 z "},"è":{"ha":614,"x_min":0,"x_max":0,"o":"m 574 386 b 325 640 574 538 479 640 b 117 544 239 640 169 608 b 39 300 65 482 39 400 b 118 71 39 208 65 132 b 321 -19 172 11 239 -19 b 486 51 386 -19 440 4 b 572 225 532 99 560 157 l 549 243 b 361 111 510 156 447 111 b 149 386 233 111 149 214 z m 150 433 b 293 588 156 524 219 588 b 424 433 367 588 418 538 z m 301 713 l 333 713 l 272 943 l 94 943 z "},"é":{"ha":614,"x_min":0,"x_max":0,"o":"m 574 386 b 325 640 574 538 479 640 b 117 544 239 640 169 608 b 39 300 65 482 39 400 b 118 71 39 208 65 132 b 321 -19 172 11 239 -19 b 486 51 386 -19 440 4 b 572 225 532 99 560 157 l 549 243 b 361 111 510 156 447 111 b 149 386 233 111 149 214 z m 150 433 b 293 588 156 524 219 588 b 424 433 367 588 418 538 z m 307 714 l 338 714 l 547 949 l 369 949 z "},"ê":{"ha":614,"x_min":0,"x_max":0,"o":"m 574 386 b 325 640 574 538 479 640 b 117 544 239 640 169 608 b 39 300 65 482 39 400 b 118 71 39 208 65 132 b 321 -19 172 11 239 -19 b 486 51 386 -19 440 4 b 572 225 532 99 560 157 l 549 243 b 361 111 510 156 447 111 b 149 386 233 111 149 214 z m 150 433 b 293 588 156 524 219 588 b 424 433 367 588 418 538 z m 122 717 l 150 717 l 314 851 l 478 717 l 506 717 l 385 939 l 243 939 z "},"ë":{"ha":614,"x_min":0,"x_max":0,"o":"m 574 386 b 325 640 574 538 479 640 b 117 544 239 640 169 608 b 39 300 65 482 39 400 b 118 71 39 208 65 132 b 321 -19 172 11 239 -19 b 486 51 386 -19 440 4 b 572 225 532 99 560 157 l 549 243 b 361 111 510 156 447 111 b 149 386 233 111 149 214 z m 150 433 b 293 588 156 524 219 588 b 424 433 367 588 418 538 z m 188 756 b 269 836 232 756 269 792 b 188 919 269 882 232 919 b 106 836 142 919 106 882 b 188 756 106 792 139 756 z m 351 836 b 432 756 351 790 386 756 b 515 836 478 756 515 790 b 432 919 515 885 478 919 b 351 836 386 919 351 885 z "},"ì":{"ha":386,"x_min":0,"x_max":0,"o":"m 224 640 l 32 561 l 44 533 b 81 542 56 539 68 542 b 132 431 121 542 132 524 l 132 124 b 39 31 132 50 113 31 l 39 0 l 356 0 l 356 31 b 267 124 283 31 267 50 l 267 640 z m 210 713 l 242 713 l 181 943 l 3 943 z "},"í":{"ha":386,"x_min":0,"x_max":0,"o":"m 224 640 l 32 561 l 44 533 b 81 542 56 539 68 542 b 132 431 121 542 132 524 l 132 124 b 39 31 132 50 113 31 l 39 0 l 356 0 l 356 31 b 267 124 283 31 267 50 l 267 640 z m 146 713 l 176 713 l 386 947 l 208 947 z "},"î":{"ha":386,"x_min":0,"x_max":0,"o":"m 224 640 l 32 561 l 44 533 b 81 542 56 539 68 542 b 132 431 121 542 132 524 l 132 124 b 39 31 132 50 113 31 l 39 0 l 356 0 l 356 31 b 267 124 283 31 267 50 l 267 640 z m -8 717 l 19 717 l 183 851 l 347 717 l 375 717 l 254 939 l 113 939 z "},"ï":{"ha":386,"x_min":0,"x_max":0,"o":"m 224 640 l 32 561 l 44 533 b 81 542 56 539 68 542 b 132 431 121 542 132 524 l 132 124 b 39 31 132 50 113 31 l 39 0 l 356 0 l 356 31 b 267 124 283 31 267 50 l 267 640 z m 61 756 b 143 836 106 756 143 792 b 61 919 143 882 106 919 b -21 836 15 919 -21 882 b 61 756 -21 792 13 756 z m 225 836 b 306 756 225 790 260 756 b 389 836 351 756 389 790 b 306 919 389 885 351 919 b 225 836 260 919 225 885 z "},"ð":{"ha":701,"x_min":0,"x_max":0,"o":"m 336 769 b 439 617 360 743 407 679 l 436 614 b 347 640 410 632 381 640 b 128 539 261 640 188 607 b 38 306 68 472 38 394 b 126 76 38 218 67 142 b 346 -19 186 13 258 -19 b 578 81 446 -19 524 14 b 661 328 633 147 661 229 b 586 603 661 421 636 513 b 394 831 536 693 472 769 l 560 924 l 532 968 l 350 868 b 182 972 301 908 244 943 l 153 931 l 175 917 b 283 829 203 900 254 861 l 122 739 l 147 694 l 318 788 z m 336 585 b 461 494 388 585 429 554 b 510 267 493 435 510 358 b 371 38 510 124 464 38 b 188 365 264 38 188 160 b 336 585 188 508 247 585 z "},"ñ":{"ha":719,"x_min":0,"x_max":0,"o":"m 207 640 l 10 561 l 19 532 b 65 542 36 539 51 542 b 113 447 99 542 113 521 l 113 124 b 19 31 113 50 93 31 l 19 0 l 340 0 l 340 31 b 247 124 267 31 247 51 l 247 465 b 385 540 296 515 342 540 b 481 392 447 540 481 503 l 481 124 b 389 31 481 50 465 29 l 389 0 l 710 0 l 710 31 b 615 124 633 29 615 53 l 615 417 b 449 640 615 565 560 640 b 247 526 372 640 315 610 l 247 640 z m 156 743 b 221 831 164 801 186 831 b 274 808 233 831 257 818 b 314 781 283 803 307 786 b 431 736 360 751 399 736 b 532 793 474 736 507 756 b 568 921 557 831 569 874 l 544 921 b 483 829 535 860 515 829 b 428 850 467 829 446 840 b 386 879 418 857 396 874 b 268 924 340 908 301 924 b 167 868 225 924 192 906 b 132 743 143 831 131 789 z "},"ò":{"ha":697,"x_min":0,"x_max":0,"o":"m 347 640 b 128 539 261 640 188 607 b 38 307 68 472 38 394 b 126 78 38 219 67 143 b 349 -19 186 13 260 -19 b 576 81 446 -19 522 14 b 660 324 632 149 660 229 b 569 546 660 410 629 483 b 347 640 510 608 435 640 z m 336 585 b 510 267 432 585 510 467 b 371 38 510 114 464 38 b 188 365 261 38 188 164 b 336 585 188 510 249 585 z m 333 713 l 365 713 l 304 943 l 126 943 z "},"ó":{"ha":697,"x_min":0,"x_max":0,"o":"m 347 640 b 128 539 261 640 188 607 b 38 307 68 472 38 394 b 126 78 38 219 67 143 b 349 -19 186 13 260 -19 b 576 81 446 -19 522 14 b 660 324 632 149 660 229 b 569 546 660 410 629 483 b 347 640 510 608 435 640 z m 336 585 b 510 267 432 585 510 467 b 371 38 510 114 464 38 b 188 365 261 38 188 164 b 336 585 188 510 249 585 z m 307 713 l 338 713 l 547 947 l 369 947 z "},"ô":{"ha":697,"x_min":0,"x_max":0,"o":"m 347 640 b 128 539 261 640 188 607 b 38 307 68 472 38 394 b 126 78 38 219 67 143 b 349 -19 186 13 260 -19 b 576 81 446 -19 522 14 b 660 324 632 149 660 229 b 569 546 660 410 629 483 b 347 640 510 608 435 640 z m 336 585 b 510 267 432 585 510 467 b 371 38 510 114 464 38 b 188 365 261 38 188 164 b 336 585 188 510 249 585 z m 147 717 l 175 717 l 339 851 l 503 717 l 531 717 l 410 939 l 268 939 z "},"õ":{"ha":697,"x_min":0,"x_max":0,"o":"m 347 640 b 128 539 261 640 188 607 b 38 307 68 472 38 394 b 126 78 38 219 67 143 b 349 -19 186 13 260 -19 b 576 81 446 -19 522 14 b 660 324 632 149 660 229 b 569 546 660 410 629 483 b 347 640 510 608 435 640 z m 336 585 b 510 267 432 585 510 467 b 371 38 510 114 464 38 b 188 365 261 38 188 164 b 336 585 188 510 249 585 z m 147 743 b 213 831 156 801 178 831 b 265 808 225 831 249 818 b 306 781 275 803 299 786 b 422 736 351 751 390 736 b 524 793 465 736 499 756 b 560 921 549 831 561 874 l 536 921 b 475 829 526 860 507 829 b 419 850 458 829 438 840 b 378 879 410 857 388 874 b 260 924 332 908 293 924 b 158 868 217 924 183 906 b 124 743 135 831 122 789 z "},"ö":{"ha":697,"x_min":0,"x_max":0,"o":"m 347 640 b 128 539 261 640 188 607 b 38 307 68 472 38 394 b 126 78 38 219 67 143 b 349 -19 186 13 260 -19 b 576 81 446 -19 522 14 b 660 324 632 149 660 229 b 569 546 660 410 629 483 b 347 640 510 608 435 640 z m 336 585 b 510 267 432 585 510 467 b 371 38 510 114 464 38 b 188 365 261 38 188 164 b 336 585 188 510 249 585 z m 214 756 b 296 836 258 756 296 792 b 214 919 296 882 258 919 b 132 836 168 919 132 882 b 214 756 132 792 165 756 z m 378 836 b 458 756 378 790 413 756 b 542 836 504 756 542 790 b 458 919 542 885 504 919 b 378 836 413 919 378 885 z "},"÷":{"ha":783,"x_min":0,"x_max":0,"o":"m 757 493 l 28 493 l 28 426 l 757 426 z m 440 204 b 440 301 467 231 467 275 b 343 301 414 328 369 328 b 343 204 317 275 317 231 b 440 204 369 178 414 178 z m 440 621 b 440 718 467 647 467 692 b 343 718 414 744 369 744 b 343 621 317 692 317 647 b 440 621 369 594 414 594 z "},"ø":{"ha":694,"x_min":0,"x_max":0,"o":"m 36 307 b 113 89 36 221 61 149 l 21 -14 l 63 -50 l 153 51 b 344 -19 207 4 271 -19 b 628 160 483 -19 585 60 b 660 324 649 211 660 265 b 583 531 660 403 635 471 l 675 632 l 632 669 l 542 569 b 347 640 485 617 421 640 b 125 542 260 640 185 607 b 36 307 65 476 36 397 z m 188 365 b 332 585 188 522 253 585 b 468 483 392 585 438 551 l 210 197 b 188 365 194 243 188 299 z m 510 267 b 371 38 510 114 464 38 b 231 139 311 38 264 71 l 489 428 b 510 267 503 381 510 326 z "},"ù":{"ha":726,"x_min":0,"x_max":0,"o":"m 375 621 l 375 590 b 478 482 460 590 478 569 l 478 168 b 339 83 440 124 382 83 b 242 207 271 83 242 119 l 242 621 l 4 621 l 4 590 b 88 568 47 589 75 582 b 107 482 100 556 107 526 l 107 203 b 276 -19 107 54 164 -19 b 478 96 350 -19 418 19 l 478 -19 l 518 -19 l 715 63 l 706 89 b 657 78 688 82 671 78 b 613 186 625 78 613 104 l 613 621 z m 318 713 l 350 713 l 289 943 l 111 943 z "},"ú":{"ha":726,"x_min":0,"x_max":0,"o":"m 375 621 l 375 590 b 478 482 460 590 478 569 l 478 168 b 339 83 440 124 382 83 b 242 207 271 83 242 119 l 242 621 l 4 621 l 4 590 b 88 568 47 589 75 582 b 107 482 100 556 107 526 l 107 203 b 276 -19 107 54 164 -19 b 478 96 350 -19 418 19 l 478 -19 l 518 -19 l 715 63 l 706 89 b 657 78 688 82 671 78 b 613 186 625 78 613 104 l 613 621 z m 304 713 l 335 713 l 544 947 l 367 947 z "},"û":{"ha":726,"x_min":0,"x_max":0,"o":"m 375 621 l 375 590 b 478 482 460 590 478 569 l 478 168 b 339 83 440 124 382 83 b 242 207 271 83 242 119 l 242 621 l 4 621 l 4 590 b 88 568 47 589 75 582 b 107 482 100 556 107 526 l 107 203 b 276 -19 107 54 164 -19 b 478 96 350 -19 418 19 l 478 -19 l 518 -19 l 715 63 l 706 89 b 657 78 688 82 671 78 b 613 186 625 78 613 104 l 613 621 z m 140 717 l 168 717 l 332 851 l 496 717 l 524 717 l 403 939 l 261 939 z "},"ü":{"ha":726,"x_min":0,"x_max":0,"o":"m 375 621 l 375 590 b 478 482 460 590 478 569 l 478 168 b 339 83 440 124 382 83 b 242 207 271 83 242 119 l 242 621 l 4 621 l 4 590 b 88 568 47 589 75 582 b 107 482 100 556 107 526 l 107 203 b 276 -19 107 54 164 -19 b 478 96 350 -19 418 19 l 478 -19 l 518 -19 l 715 63 l 706 89 b 657 78 688 82 671 78 b 613 186 625 78 613 104 l 613 621 z m 203 756 b 285 836 247 756 285 792 b 203 919 285 882 247 919 b 121 836 157 919 121 882 b 203 756 121 792 154 756 z m 367 836 b 447 756 367 790 401 756 b 531 836 493 756 531 790 b 447 919 531 885 493 919 b 367 836 401 919 367 885 z "},"ý":{"ha":718,"x_min":0,"x_max":0,"o":"m 324 -69 b 233 -186 294 -147 264 -186 b 139 -154 213 -186 174 -154 b 65 -224 94 -154 65 -185 b 156 -300 65 -268 104 -300 b 365 -125 246 -300 317 -242 l 625 518 b 711 590 643 567 672 590 l 711 621 l 500 621 l 500 590 b 563 556 542 590 563 579 b 543 485 563 540 556 517 l 418 179 l 286 456 b 258 540 268 493 258 521 b 329 590 258 574 282 590 l 329 621 l 10 621 l 10 590 b 78 558 39 588 61 576 b 147 442 96 540 118 501 l 354 14 z m 421 713 l 451 713 l 661 947 l 483 947 z "},"þ":{"ha":694,"x_min":0,"x_max":0,"o":"m 186 964 l -18 886 l -6 857 b 38 865 7 863 22 865 b 90 754 76 865 90 844 l 90 -172 b -17 -265 90 -250 67 -267 l -17 -296 l 331 -296 l 331 -265 b 224 -172 242 -267 224 -250 l 224 33 b 360 -19 260 -1 306 -19 b 575 79 450 -19 521 14 b 656 340 629 146 656 233 b 592 557 656 429 635 501 b 425 640 550 613 494 640 b 228 510 340 640 271 588 l 225 510 l 225 964 z m 225 444 b 360 531 267 501 311 531 b 514 269 447 531 514 447 b 360 29 514 119 443 29 b 225 190 269 29 225 83 z "},"ÿ":{"ha":718,"x_min":0,"x_max":0,"o":"m 324 -69 b 233 -186 294 -147 264 -186 b 139 -154 213 -186 174 -154 b 65 -224 94 -154 65 -185 b 156 -300 65 -268 104 -300 b 365 -125 246 -300 317 -242 l 625 518 b 711 590 643 567 672 590 l 711 621 l 500 621 l 500 590 b 563 556 542 590 563 579 b 543 485 563 540 556 517 l 418 179 l 286 456 b 258 540 268 493 258 521 b 329 590 258 574 282 590 l 329 621 l 10 621 l 10 590 b 78 558 39 588 61 576 b 147 442 96 540 118 501 l 354 14 z m 293 756 b 375 836 338 756 375 792 b 293 919 375 882 338 919 b 211 836 247 919 211 882 b 293 756 211 792 244 756 z m 457 836 b 538 756 457 790 492 756 b 621 836 583 756 621 790 b 538 919 621 885 583 919 b 457 836 492 919 457 885 z "},"ı":{"ha":386,"x_min":0,"x_max":0,"o":"m 224 640 l 32 561 l 44 533 b 81 542 56 539 68 542 b 132 431 121 542 132 524 l 132 124 b 39 31 132 50 113 31 l 39 0 l 356 0 l 356 31 b 267 124 283 31 267 50 l 267 640 z "},"Ł":{"ha":863,"x_min":0,"x_max":0,"o":"m 314 708 b 339 861 314 790 322 842 b 468 890 357 881 400 890 l 468 919 l 25 919 l 25 890 b 132 861 81 890 117 881 b 156 725 147 843 156 797 l 156 428 l 31 322 l 31 242 l 156 347 l 156 186 b 131 60 156 121 147 79 b 25 31 114 40 79 31 l 25 0 l 751 0 l 831 250 l 803 257 b 563 69 747 114 679 69 l 381 69 b 314 192 331 69 314 93 l 314 481 l 456 599 l 456 679 l 314 561 l 314 708 z "},"ł":{"ha":386,"x_min":0,"x_max":0,"o":"m 225 964 l 22 886 l 35 857 b 78 865 47 863 61 865 b 131 753 117 865 131 847 l 131 453 l 22 361 l 22 292 l 131 383 l 131 124 b 36 31 131 50 107 29 l 36 0 l 358 0 l 358 31 b 265 124 290 31 265 51 l 265 496 l 376 589 l 376 658 l 265 565 l 265 964 z "},"Œ":{"ha":1235,"x_min":0,"x_max":0,"o":"m 911 863 b 1049 836 979 863 1025 854 b 1104 711 1074 818 1092 776 l 1136 711 l 1124 919 l 694 919 b 575 924 663 919 624 921 b 472 929 528 928 493 929 b 149 797 338 929 231 885 b 26 454 67 710 26 594 b 143 121 26 319 65 208 b 458 -10 222 33 326 -10 b 543 -4 479 -10 507 -8 b 626 0 581 -1 608 0 l 1126 0 l 1204 235 l 1176 235 b 1069 94 1136 167 1101 121 b 938 56 1039 68 994 56 l 840 56 b 765 119 778 56 765 65 l 765 450 l 860 450 b 979 425 919 450 958 442 b 1019 314 1000 410 1014 372 l 1050 314 l 1050 646 l 1019 646 b 981 535 1015 588 1003 550 b 860 511 960 519 919 511 l 765 511 l 765 863 z m 606 265 b 578 88 606 175 596 115 b 465 47 560 61 522 47 b 272 160 381 47 315 85 b 207 447 229 235 207 331 b 272 756 207 574 229 676 b 475 874 315 835 383 874 b 606 724 563 874 606 824 z "},"œ":{"ha":1029,"x_min":0,"x_max":0,"o":"m 988 386 b 764 640 988 542 901 640 b 554 529 671 640 601 603 b 340 640 503 603 432 640 b 124 546 250 640 178 608 b 42 303 69 483 42 403 b 122 74 42 213 68 136 b 338 -19 176 11 249 -19 b 554 92 431 -19 503 18 b 746 -19 592 21 667 -19 b 989 224 883 -19 963 83 l 960 242 b 801 108 936 160 874 108 b 619 386 686 108 621 218 z m 325 585 b 481 257 414 585 481 461 b 356 38 481 106 432 38 b 190 361 256 38 190 160 b 325 585 190 510 242 585 z m 619 433 b 726 582 621 521 669 582 b 842 433 800 582 838 532 z "},"Š":{"ha":726,"x_min":0,"x_max":0,"o":"m 592 940 b 544 888 585 906 569 888 b 468 914 538 888 513 896 b 340 940 424 932 381 940 b 140 869 261 940 194 917 b 61 697 88 824 61 765 b 538 181 61 392 538 392 b 372 40 538 96 472 40 b 101 294 235 40 125 122 l 69 294 l 69 -21 l 101 -21 b 143 31 103 14 117 31 b 242 4 158 31 192 22 b 388 -21 292 -12 340 -21 b 606 54 481 -21 554 4 b 685 240 658 104 685 167 b 511 493 685 350 607 439 b 244 653 415 549 313 593 b 335 881 140 742 213 886 b 592 622 483 881 579 776 l 625 622 l 625 940 z m 544 1215 l 518 1215 l 356 1079 l 192 1215 l 167 1215 l 283 992 l 431 992 z "},"š":{"ha":540,"x_min":0,"x_max":0,"o":"m 428 640 b 399 614 425 622 415 614 b 339 626 388 614 368 618 b 261 640 310 636 285 640 b 65 460 143 640 65 561 b 386 115 65 238 386 268 b 288 31 386 65 350 31 b 97 213 192 31 114 108 l 67 213 l 67 -10 l 97 -10 b 122 8 100 3 108 8 b 181 -6 126 8 146 4 b 282 -19 215 -15 250 -19 b 503 169 417 -19 503 58 b 279 392 503 300 379 349 b 158 511 213 421 158 460 b 257 590 158 557 197 590 b 428 428 351 590 413 517 l 458 428 l 458 640 z m 461 940 l 435 940 l 272 804 l 108 940 l 83 940 l 200 717 l 347 717 z "},"Ÿ":{"ha":1018,"x_min":0,"x_max":0,"o":"m 357 763 b 326 839 336 792 326 818 b 432 889 326 876 354 888 l 432 919 l 14 919 l 14 889 b 147 803 65 886 110 857 l 429 378 l 429 192 b 404 60 429 124 421 79 b 299 31 389 40 353 31 l 299 0 l 718 0 l 718 31 b 611 60 663 31 626 40 b 588 192 596 79 588 124 l 588 396 l 814 753 b 1006 889 876 854 924 888 l 1006 919 l 671 919 l 671 889 b 765 832 733 889 765 869 b 713 717 765 810 747 771 l 554 465 z m 407 1003 b 489 1083 451 1003 489 1039 b 407 1167 489 1129 451 1167 b 325 1083 361 1167 325 1129 b 407 1003 325 1039 358 1003 z m 571 1083 b 651 1003 571 1038 606 1003 b 735 1083 697 1003 735 1038 b 651 1167 735 1132 697 1167 b 571 1083 606 1167 571 1132 z "},"Ž":{"ha":842,"x_min":0,"x_max":0,"o":"m 804 919 l 117 919 l 97 689 l 129 689 b 181 825 139 760 156 804 b 324 856 206 846 253 856 l 579 856 l 15 25 l 15 0 l 774 0 l 817 243 l 785 243 b 710 100 758 172 733 124 b 581 65 686 76 643 65 l 225 65 z m 654 1215 l 628 1215 l 465 1079 l 301 1215 l 276 1215 l 393 992 l 540 992 z "},"ž":{"ha":597,"x_min":0,"x_max":0,"o":"m 538 193 b 496 79 531 133 517 94 b 371 56 475 64 433 56 l 200 56 l 574 589 l 574 621 l 61 621 l 61 444 l 92 444 b 129 544 99 497 111 531 b 249 565 149 558 189 565 l 397 565 l 22 31 l 22 0 l 557 0 l 568 193 z m 506 940 l 479 940 l 317 804 l 153 940 l 128 940 l 244 717 l 392 717 z "},"ƒ":{"ha":711,"x_min":0,"x_max":0,"o":"m 514 774 b 596 929 531 878 558 929 b 615 913 608 929 615 924 b 604 872 615 903 604 885 b 650 831 604 849 624 831 b 699 885 679 831 699 856 b 597 964 699 933 654 964 b 389 738 497 964 435 881 b 333 635 371 685 351 650 b 232 613 315 619 281 613 l 218 556 l 342 556 b 201 -74 317 463 269 253 b 99 -257 175 -196 142 -257 b 83 -244 89 -257 83 -253 b 99 -204 83 -239 99 -219 b 51 -162 99 -176 83 -162 b -6 -224 22 -162 -6 -189 b 82 -300 -6 -269 31 -300 b 364 93 197 -300 290 -169 b 478 556 421 297 458 451 l 592 556 l 603 613 l 489 613 z "},"ˆ":{"ha":463,"x_min":0,"x_max":0,"o":"m 39 765 l 67 765 l 231 900 l 394 765 l 422 765 l 301 988 l 160 988 z "},"ˇ":{"ha":463,"x_min":0,"x_max":0,"o":"m 419 989 l 393 989 l 231 853 l 67 989 l 42 989 l 158 765 l 306 765 z "},"˘":{"ha":463,"x_min":0,"x_max":0,"o":"m 32 953 b 231 760 36 840 119 760 b 426 953 342 760 422 838 l 397 953 b 231 861 367 892 311 861 b 61 953 147 861 83 897 l 32 953 z "},"˙":{"ha":463,"x_min":0,"x_max":0,"o":"m 144 835 b 231 749 144 789 182 749 b 315 835 276 749 315 786 b 231 919 315 883 281 919 b 144 835 185 919 144 883 z "},"˚":{"ha":463,"x_min":0,"x_max":0,"o":"m 232 963 b 99 832 158 963 99 904 b 232 701 99 760 156 701 b 364 832 308 701 364 758 b 232 963 364 906 308 963 z m 157 832 b 232 907 157 876 189 907 b 306 832 272 907 306 876 b 232 757 306 789 272 757 b 157 832 189 757 157 789 z "},"˛":{"ha":463,"x_min":0,"x_max":0,"o":"m 149 11 b 92 -125 111 -24 92 -68 b 250 -253 92 -207 144 -253 b 413 -200 315 -253 369 -235 l 396 -171 b 311 -187 365 -182 338 -187 b 176 -65 224 -187 176 -143 b 197 11 176 -39 183 -14 l 149 11 z "},"˜":{"ha":463,"x_min":0,"x_max":0,"o":"m 36 747 b 101 835 44 806 67 835 b 154 813 114 835 138 822 b 194 785 164 807 188 790 b 311 740 240 756 279 740 b 413 797 354 740 388 760 b 449 925 438 835 450 878 l 425 925 b 364 833 415 864 396 833 b 308 854 347 833 326 844 b 267 883 299 861 276 878 b 149 928 221 913 182 928 b 47 872 106 928 72 910 b 13 747 24 835 11 793 l 36 747 z "},"˝":{"ha":463,"x_min":0,"x_max":0,"o":"m 58 758 l 86 758 l 250 993 l 100 993 z m 271 758 l 299 758 l 464 993 l 314 993 z "},"–":{"ha":694,"x_min":0,"x_max":0,"o":"m 707 389 l -12 389 l -12 292 l 707 292 z "},"—":{"ha":1389,"x_min":0,"x_max":0,"o":"m 1401 388 l -12 388 l -12 292 l 1401 292 z "},"‘":{"ha":411,"x_min":0,"x_max":0,"o":"m 286 940 b 151 854 233 925 189 897 b 97 711 115 811 97 764 b 215 575 97 633 150 575 b 314 658 272 575 314 610 b 236 739 314 704 285 739 b 185 728 218 739 194 728 b 164 761 171 728 164 739 b 286 903 164 818 218 875 l 286 940 z "},"’":{"ha":411,"x_min":0,"x_max":0,"o":"m 125 578 b 258 664 178 593 222 621 b 314 807 296 707 314 754 b 196 943 314 883 261 943 b 99 858 139 943 99 908 b 175 778 99 813 126 778 b 226 789 193 778 217 789 b 247 756 240 789 247 778 b 125 615 247 700 193 643 l 125 578 z "},"‚":{"ha":411,"x_min":0,"x_max":0,"o":"m 125 -212 b 314 18 232 -183 314 -89 b 196 154 314 94 261 154 b 99 69 139 154 99 118 b 175 -11 99 24 126 -11 b 226 0 193 -11 217 0 b 247 -33 240 0 247 -11 b 125 -174 247 -89 193 -146 l 125 -212 z "},"“":{"ha":676,"x_min":0,"x_max":0,"o":"m 257 940 b 122 854 204 925 160 897 b 68 711 86 811 68 764 b 188 575 68 633 121 575 b 285 658 244 575 285 610 b 207 739 285 704 256 739 b 156 728 189 739 165 728 b 135 761 142 728 135 739 b 257 903 135 818 189 875 z m 582 940 b 447 854 529 925 485 897 b 393 711 411 811 393 764 b 511 575 393 633 444 575 b 608 658 568 575 608 610 b 532 739 608 704 581 739 b 481 728 514 739 490 728 b 460 761 467 728 460 739 b 582 903 460 818 514 875 z "},"”":{"ha":674,"x_min":0,"x_max":0,"o":"m 418 578 b 607 807 525 607 607 700 b 489 943 607 885 556 943 b 392 858 432 943 392 908 b 468 778 392 813 419 778 b 521 789 486 778 510 789 b 540 756 533 789 540 778 b 418 615 540 700 486 643 z m 94 578 b 228 664 147 593 192 621 b 283 807 265 707 283 754 b 164 943 283 885 231 943 b 67 858 107 943 67 907 b 144 778 67 814 96 778 b 196 789 163 778 186 789 b 217 756 210 789 217 778 b 94 615 217 700 163 643 z "},"„":{"ha":674,"x_min":0,"x_max":0,"o":"m 418 -212 b 607 18 525 -183 607 -89 b 489 154 607 96 556 154 b 392 69 432 154 392 118 b 468 -11 392 24 419 -11 b 521 0 486 -11 510 0 b 540 -33 533 0 540 -11 b 418 -174 540 -89 486 -146 z m 94 -212 b 283 18 201 -183 283 -89 b 164 154 283 96 231 154 b 67 69 108 154 67 118 b 144 -11 67 25 96 -11 b 196 0 163 -11 186 0 b 217 -33 210 0 217 -11 b 94 -174 217 -89 163 -146 z "},"†":{"ha":694,"x_min":0,"x_max":0,"o":"m 364 -274 b 378 133 364 -115 368 21 b 439 460 388 246 407 356 b 365 614 393 499 369 550 b 458 586 389 614 419 604 b 549 560 499 568 528 560 b 626 632 594 560 626 588 b 549 701 626 672 594 701 b 460 675 529 701 500 693 b 365 650 419 658 389 650 b 399 763 365 678 376 715 b 432 868 421 810 432 844 b 347 964 432 919 399 964 b 263 868 296 964 263 919 b 294 763 263 844 274 810 b 328 650 317 715 328 678 b 232 675 304 650 272 658 b 143 701 192 693 161 701 b 68 632 100 701 68 672 b 143 560 68 589 100 560 b 232 586 161 560 192 568 b 328 614 272 604 304 614 b 254 460 324 550 300 499 b 314 135 286 356 306 247 b 328 -274 324 24 328 -112 l 364 -274 z "},"‡":{"ha":694,"x_min":0,"x_max":0,"o":"m 363 692 b 392 786 363 713 372 743 b 421 885 411 829 421 863 b 347 964 421 929 390 964 b 271 885 303 964 271 929 b 300 790 271 863 281 831 b 329 692 319 750 329 718 b 239 715 306 692 275 700 b 158 739 203 731 176 739 b 92 676 124 739 92 714 b 158 611 92 636 124 611 b 239 635 176 611 203 619 b 329 660 275 651 306 660 b 260 549 325 613 301 575 b 331 332 307 496 331 424 b 260 115 331 240 307 168 b 332 3 301 89 325 51 b 243 26 308 3 279 11 b 160 50 207 42 179 50 b 113 -57 103 56 74 -22 b 242 -51 139 -81 169 -83 b 332 -29 279 -36 308 -29 b 301 -124 332 -47 322 -79 b 272 -221 282 -168 272 -200 b 347 -300 272 -265 303 -300 b 424 -221 392 -300 424 -265 b 394 -125 424 -200 414 -168 b 365 -29 375 -83 365 -51 b 456 -51 389 -29 419 -36 b 538 -75 493 -67 519 -75 b 603 -12 572 -75 603 -50 b 538 51 603 28 572 51 b 456 26 519 51 493 43 b 365 3 419 11 389 3 b 435 115 374 54 397 92 b 364 332 388 169 364 242 b 435 549 364 429 388 501 b 363 660 392 575 367 613 b 450 636 386 660 415 651 b 533 614 486 621 514 614 b 581 721 589 608 624 686 b 451 715 554 744 524 747 b 363 692 415 700 386 692 z "},"•":{"ha":486,"x_min":0,"x_max":0,"o":"m 78 458 b 126 343 78 414 94 375 b 242 296 158 311 197 296 b 357 343 286 296 325 311 b 406 458 389 375 406 413 b 242 624 406 554 332 624 b 126 575 197 624 158 607 b 78 458 94 543 78 504 z "},"…":{"ha":1389,"x_min":0,"x_max":0,"o":"m 231 -19 b 318 68 281 -19 318 19 b 231 156 318 118 281 156 b 144 68 182 156 144 118 b 231 -19 144 19 182 -19 z m 693 -19 b 781 68 742 -19 781 18 b 693 156 781 117 744 156 b 606 68 643 156 606 118 b 693 -19 606 18 643 -19 z m 1074 68 b 1158 -19 1074 17 1107 -19 b 1247 69 1210 -19 1247 19 b 1158 156 1247 118 1207 156 b 1074 68 1107 156 1074 118 z "},"‰":{"ha":1428,"x_min":0,"x_max":0,"o":"m 242 939 b 94 867 183 939 135 915 b 35 690 54 818 35 760 b 94 514 35 621 54 563 b 240 442 135 465 183 442 b 389 511 300 442 349 465 b 449 690 429 558 449 618 b 392 867 449 760 429 818 b 242 939 354 915 304 939 z m 242 896 b 318 692 293 896 318 828 b 240 482 318 531 292 482 b 165 689 190 482 165 551 b 242 896 165 843 192 896 z m 697 478 b 550 403 639 478 590 453 b 490 229 510 354 490 296 b 547 50 490 157 510 97 b 697 -19 586 4 636 -19 b 843 51 756 -19 804 4 b 903 229 883 99 903 158 b 846 406 903 299 883 357 b 697 478 808 454 758 478 z m 699 435 b 774 231 749 435 774 367 b 696 21 774 71 747 21 b 619 228 646 21 619 74 b 699 435 619 365 646 435 z m 1165 478 b 1018 406 1107 478 1058 454 b 960 229 979 357 960 299 b 1018 51 960 158 979 99 b 1165 -19 1057 4 1106 -19 b 1315 53 1228 -19 1278 4 b 1374 229 1354 101 1374 161 b 1315 407 1374 300 1354 360 b 1165 478 1276 454 1226 478 z m 1167 21 b 1090 228 1115 21 1090 90 b 1167 435 1090 365 1115 435 b 1243 231 1218 435 1243 367 b 1167 21 1243 75 1217 21 z m 761 940 l 104 -21 l 181 -21 l 838 940 z "},"‹":{"ha":463,"x_min":0,"x_max":0,"o":"m 229 314 l 392 633 l 332 633 l 65 314 l 332 -6 l 392 -6 z "},"›":{"ha":463,"x_min":0,"x_max":0,"o":"m 233 314 l 72 -6 l 131 -6 l 397 314 l 131 633 l 72 633 z "},"⁄":{"ha":232,"x_min":0,"x_max":0,"o":"m 396 940 l -242 -39 l -167 -39 l 469 940 z "},"€":{"ha":694,"x_min":0,"x_max":0,"o":"m 200 557 b 422 883 207 689 261 885 b 619 676 538 883 603 814 l 656 676 l 656 879 b 422 939 579 919 501 939 b 160 829 313 939 225 903 b 40 557 96 756 56 665 l -10 557 l -26 499 l 35 499 b 32 444 33 472 32 454 l -14 444 l -32 383 l 36 383 b 119 119 46 288 69 203 b 376 -15 169 38 260 -15 b 669 179 514 -15 593 50 l 644 197 b 554 94 610 147 593 126 b 404 50 515 63 469 50 b 196 383 282 50 206 183 l 539 383 l 557 444 l 196 444 l 196 499 l 574 499 l 590 557 z "},"™":{"ha":1399,"x_min":0,"x_max":0,"o":"m 15 778 l 42 778 b 79 853 49 818 61 843 b 183 869 99 864 133 869 l 211 869 l 211 503 b 197 417 211 458 207 429 b 131 399 188 404 165 399 l 131 372 l 428 372 l 428 399 b 361 415 393 399 371 404 b 349 503 353 426 349 456 l 349 869 l 372 869 b 478 853 425 869 460 864 b 517 778 496 842 510 817 l 543 778 l 529 919 l 29 919 z m 582 919 l 582 892 b 663 788 649 892 663 869 l 663 506 b 582 399 663 422 643 399 l 582 372 l 789 372 l 789 399 b 708 506 722 399 708 421 l 708 796 l 711 796 l 911 372 l 939 372 l 1146 819 l 1149 819 l 1149 503 b 1068 399 1149 419 1133 399 l 1068 372 l 1365 372 l 1365 399 b 1285 503 1303 399 1285 421 l 1285 788 b 1365 892 1285 869 1304 892 l 1365 919 l 1140 919 l 968 553 l 797 919 z "},"−":{"ha":783,"x_min":0,"x_max":0,"o":"m 757 493 l 28 493 l 28 428 l 757 428 z "},"":{"ha":1056,"x_min":0,"x_max":0,"o":"m 721 621 b 785 729 721 711 733 729 l 785 760 l 531 760 b 301 610 381 760 301 699 b 453 457 301 526 365 475 l 322 267 b 278 213 303 238 288 219 b 233 203 268 206 254 203 l 233 172 l 390 172 l 572 440 l 607 440 l 607 263 b 531 203 607 218 592 203 l 531 172 l 792 172 l 792 203 b 721 314 735 203 721 221 z m 594 481 b 431 599 485 481 431 519 b 549 724 431 675 478 724 b 607 715 572 724 592 721 l 607 481 z m 47 460 b 188 115 47 321 94 206 b 528 -21 282 25 396 -21 b 872 118 664 -21 779 25 b 1013 460 965 211 1013 325 b 874 801 1013 596 967 710 b 528 940 781 894 665 940 b 186 801 393 940 279 894 b 47 460 93 708 47 594 z m 99 460 b 221 768 99 581 139 683 b 528 896 303 853 406 896 b 839 771 656 896 760 854 b 958 460 918 689 958 585 b 833 147 958 336 917 232 b 528 22 751 64 649 22 b 224 144 410 22 308 63 b 99 460 140 226 99 331 z "},"ﬁ":{"ha":774,"x_min":0,"x_max":0,"o":"m 276 664 b 413 917 276 832 322 917 b 510 840 458 917 494 879 b 594 765 526 803 556 765 b 654 825 629 765 654 790 b 435 964 654 903 564 964 b 225 875 351 964 282 935 b 142 646 169 815 142 739 l 142 621 l 19 621 l 19 554 l 142 554 l 142 179 b 119 58 142 117 135 76 b 22 31 106 42 74 32 l 22 0 l 393 0 l 393 31 b 297 58 343 32 311 42 b 276 179 283 75 276 115 l 276 554 l 403 554 b 517 538 465 554 504 549 b 536 428 529 526 536 490 l 536 124 b 440 31 536 51 514 32 l 440 0 l 763 0 l 763 31 b 671 124 694 32 671 51 l 671 625 l 650 625 b 583 621 639 625 596 621 l 276 621 z "},"ﬂ":{"ha":772,"x_min":0,"x_max":0,"o":"m 628 964 l 521 911 b 396 964 490 946 449 964 b 142 621 242 964 142 854 l 21 621 l 21 554 l 142 554 l 142 176 b 119 56 142 113 135 72 b 24 29 104 40 72 31 l 24 0 l 392 0 l 392 29 b 297 56 343 31 311 40 b 276 176 283 72 276 113 l 276 554 l 535 554 l 535 122 b 440 29 535 50 511 31 l 440 0 l 764 0 l 764 29 b 669 122 693 31 669 51 l 669 964 z m 276 621 l 276 783 b 347 906 276 872 299 906 b 418 850 371 906 394 888 b 486 796 442 814 464 796 b 532 825 510 796 525 806 l 535 825 l 535 621 z "}}}
